<?xml version="1.0" encoding="UTF-8"?>
<svg version="1.1" xmlns="http://www.w3.org/2000/svg" width="1024" height="1024">
<path d="M0 0 C10.45096506 9.9375262 17.01011251 22.19887938 17.75 36.75 C16.63625 36.193125 15.5225 35.63625 14.375 35.0625 C13.63765625 34.7015625 12.9003125 34.340625 12.140625 33.96875 C10.56229647 33.16411193 9.0081252 32.3099915 7.484375 31.40625 C-1.36102851 26.36847052 -10.66315171 25.70652399 -20.5625 27.8125 C-31.43128061 31.03127567 -39.87265486 38.54924301 -45.5625 48.3125 C-51.30487607 61.20721056 -51.74711421 76.45047007 -47.0625 89.625 C-44.23002119 96.3347913 -40.55840098 101.55873802 -35.375 106.625 C-34.67375 107.32625 -33.9725 108.0275 -33.25 108.75 C-33.25 109.41 -33.25 110.07 -33.25 110.75 C-32.71117187 111.00007812 -32.17234375 111.25015625 -31.6171875 111.5078125 C-28.72643426 113.02474242 -26.09086025 114.81221309 -23.375 116.625 C-15.99551228 121.48386745 -8.26151802 125.64177537 -0.45166016 129.76318359 C0.46695801 130.25254395 1.38557617 130.7419043 2.33203125 131.24609375 C3.15936768 131.68107178 3.9867041 132.1160498 4.83911133 132.56420898 C6.75 133.75 6.75 133.75 7.75 135.75 C2.30576924 135.2733162 -3.06041071 134.62094499 -8.453125 133.73046875 C-17.25898866 132.46539776 -25.99134596 132.39359415 -34.875 132.4375 C-35.7201416 132.44065216 -36.5652832 132.44380432 -37.43603516 132.447052 C-58.67377516 132.5632053 -77.72215121 136.480063 -98.29003906 141.47241211 C-109.54169798 144.1915607 -120.72583971 146.52341178 -132.25 147.75 C-133.4244165 147.88595581 -133.4244165 147.88595581 -134.62255859 148.0246582 C-166.38837839 151.51883659 -200.99181964 146.45816997 -226.8125 126.375 C-230.14464484 123.65795228 -233.25636012 120.83521004 -236.25 117.75 C-232.84801319 115.4820088 -229.93418941 115.05885954 -226 114.4375 C-199.31741976 109.75353391 -178.37735568 96.32996096 -159.25 77.75 C-158.3528125 76.89277344 -157.455625 76.03554688 -156.53125 75.15234375 C-151.51032476 70.26314031 -146.9761629 65.14398998 -142.6015625 59.671875 C-140.01796559 56.46169147 -137.36149051 53.3222862 -134.6875 50.1875 C-131.48589973 46.42979187 -128.35225501 42.64113868 -125.3125 38.75 C-121.61805018 34.0785056 -117.62644322 29.72649036 -113.54907227 25.390625 C-111.15752827 22.84346547 -108.83349791 20.27943531 -106.62109375 17.57421875 C-103.48939723 13.84404315 -99.99260717 10.84733007 -96.25 7.75 C-95.57066406 7.1828125 -94.89132813 6.615625 -94.19140625 6.03125 C-66.90249603 -16.00016376 -28.99861277 -24.72513299 0 0 Z " fill="#09A6FE" transform="translate(281.25,435.25)"/>
<path d="M0 0 C0 3 0 3 -1.4609375 4.60546875 C-2.09257812 5.12753906 -2.72421875 5.64960938 -3.375 6.1875 C-4.00148437 6.71730469 -4.62796875 7.24710937 -5.2734375 7.79296875 C-7 9 -7 9 -9 9 C-9.37125 10.3303125 -9.37125 10.3303125 -9.75 11.6875 C-11.04964625 15.13156256 -12.48729227 17.33024803 -15 20 C-15.66 20 -16.32 20 -17 20 C-17.22895113 24.26998383 -17.42931899 28.54087246 -17.625 32.8125 C-17.68945312 34.00810547 -17.75390625 35.20371094 -17.8203125 36.43554688 C-18.4679672 51.29112648 -15.9698736 64.55121932 -6 76 C-5.05409486 76.9706024 -4.09700217 77.9305333 -3.125 78.875 C-2.42375 79.57625 -1.7225 80.2775 -1 81 C-1 81.66 -1 82.32 -1 83 C-0.46117187 83.25007812 0.07765625 83.50015625 0.6328125 83.7578125 C3.52356574 85.27474242 6.15913975 87.06221309 8.875 88.875 C16.25448772 93.73386745 23.98848198 97.89177537 31.79833984 102.01318359 C32.71695801 102.50254395 33.63557617 102.9919043 34.58203125 103.49609375 C35.40936768 103.93107178 36.2367041 104.3660498 37.08911133 104.81420898 C39 106 39 106 40 108 C34.55576924 107.5233162 29.18958929 106.87094499 23.796875 105.98046875 C14.99101134 104.71539776 6.25865404 104.64359415 -2.625 104.6875 C-3.4701416 104.69065216 -4.3152832 104.69380432 -5.18603516 104.697052 C-26.42377516 104.8132053 -45.47215121 108.730063 -66.04003906 113.72241211 C-77.29169798 116.4415607 -88.47583971 118.77341178 -100 120 C-101.1744165 120.13595581 -101.1744165 120.13595581 -102.37255859 120.2746582 C-131.38224331 123.46566709 -161.76138939 119.45980007 -187 104 C-187.33 103.34 -187.66 102.68 -188 102 C-183.91333648 102.74302973 -179.94981078 103.70871571 -176 105 C-175.67 105.66 -175.34 106.32 -175 107 C-173.14619147 107.91783924 -173.14619147 107.91783924 -170.88671875 108.69140625 C-170.05076172 108.99626953 -169.21480469 109.30113281 -168.35351562 109.61523438 C-167.47373047 109.92783203 -166.59394531 110.24042969 -165.6875 110.5625 C-164.81931641 110.87896484 -163.95113281 111.19542969 -163.05664062 111.52148438 C-155.05818566 114.71388354 -155.05818566 114.71388354 -147 113 C-146.01 113.495 -146.01 113.495 -145 114 C-145 114.66 -145 115.32 -145 116 C-144.34 116 -143.68 116 -143 116 C-142.79632813 115.35546875 -142.59265625 114.7109375 -142.3828125 114.046875 C-141 112 -141 112 -138.1796875 111.390625 C-137.08914062 111.34421875 -135.99859375 111.2978125 -134.875 111.25 C-133.77929688 111.19328125 -132.68359375 111.1365625 -131.5546875 111.078125 C-130.71164063 111.05234375 -129.86859375 111.0265625 -129 111 C-129 110.34 -129 109.68 -129 109 C-125.04 108.01 -125.04 108.01 -121 107 C-121 106.34 -121 105.68 -121 105 C-120.030625 104.87625 -119.06125 104.7525 -118.0625 104.625 C-117.051875 104.41875 -116.04125 104.2125 -115 104 C-114.67 103.34 -114.34 102.68 -114 102 C-112.22265625 101 -112.22265625 101 -110.0625 100 C-107.51384512 98.81586997 -106.01242841 98.01242841 -104 96 C-101.95162066 94.69305858 -99.86710868 93.45824891 -97.77734375 92.21875 C-95.85327072 91.11049805 -95.85327072 91.11049805 -95 89 C-94.34 89 -93.68 89 -93 89 C-92.01 87.02 -92.01 87.02 -91 85 C-90.34 85 -89.68 85 -89 85 C-88.731875 84.38125 -88.46375 83.7625 -88.1875 83.125 C-87 81 -87 81 -84 79 C-83.505 77.515 -83.505 77.515 -83 76 C-82.34 76 -81.68 76 -81 76 C-80.71125 75.360625 -80.4225 74.72125 -80.125 74.0625 C-79 72 -79 72 -77 71 C-75.88365848 69.34948712 -75.88365848 69.34948712 -74.875 67.4375 C-74.25625 66.303125 -73.6375 65.16875 -73 64 C-72.34 64 -71.68 64 -71 64 C-71 63.34 -71 62.68 -71 62 C-69.83587052 60.81042506 -68.66577604 59.62610203 -67.46630859 58.47216797 C-64.85956279 55.8550056 -62.60744615 52.95216731 -60.3125 50.0625 C-59.79357178 49.41369873 -59.27464355 48.76489746 -58.73999023 48.09643555 C-54.75013658 43.06146071 -50.97891872 37.89425533 -47.38598633 32.56860352 C-44.95703138 29.0438164 -42.43162739 26.5411059 -39 24 C-36.75265943 21.81179997 -34.5532426 19.59130352 -32.41015625 17.30078125 C-28.4161048 13.12559368 -24.26990859 9.4860221 -19 7 C-18.01 7 -17.02 7 -16 7 C-16 6.34 -16 5.68 -16 5 C-14.41925436 4.18247697 -12.83528777 3.37118003 -11.25 2.5625 C-9.92742187 1.88380859 -9.92742187 1.88380859 -8.578125 1.19140625 C-2.88188976 -1.44094488 -2.88188976 -1.44094488 0 0 Z " fill="#205EFE" transform="translate(249,463)"/>
<path d="M0 0 C-1.2467501 5.94817871 -2.73167861 11.76214214 -4.50390625 17.57421875 C-4.7433194 18.36906677 -4.98273254 19.16391479 -5.22940063 19.98284912 C-6.00399448 22.55201594 -6.7831251 25.11977994 -7.5625 27.6875 C-8.10030797 29.46679011 -8.63782151 31.24616925 -9.17504883 33.02563477 C-9.9902487 35.72552867 -10.8057339 38.42533316 -11.62254333 41.1247406 C-13.34952399 46.83390331 -15.0605352 52.54756627 -16.7578125 58.265625 C-17.17500223 59.66838951 -17.5922371 61.0711406 -18.00952148 62.47387695 C-18.59563091 64.44429989 -19.18084556 66.41496201 -19.76296997 68.38656616 C-20.29094411 70.17392231 -20.82308327 71.9600466 -21.35546875 73.74609375 C-21.65090576 74.74310303 -21.94634277 75.7401123 -22.25073242 76.76733398 C-23 79 -23 79 -24 80 C-25.34267413 80.08631874 -26.68974322 80.10706473 -28.03515625 80.09765625 C-28.84404297 80.09443359 -29.65292969 80.09121094 -30.48632812 80.08789062 C-31.33646484 80.07951172 -32.18660156 80.07113281 -33.0625 80.0625 C-33.91650391 80.05798828 -34.77050781 80.05347656 -35.65039062 80.04882812 C-37.76695663 80.03700373 -39.88348685 80.01906769 -42 80 C-42.19822861 79.37803741 -42.39645721 78.75607483 -42.60069275 78.11526489 C-44.65883534 71.65873571 -46.71925111 65.2029352 -48.78100586 58.74755859 C-49.55079897 56.3362877 -50.32000659 53.92482981 -51.08862305 51.51318359 C-52.1916671 48.05256955 -53.29679513 44.59262711 -54.40234375 41.1328125 C-54.74716293 40.04944611 -55.09198212 38.96607971 -55.44725037 37.84988403 C-55.76750687 36.8489975 -56.08776337 35.84811096 -56.41772461 34.81689453 C-56.69974228 33.93309113 -56.98175995 33.04928772 -57.27232361 32.13870239 C-57.95165876 29.98395233 -57.95165876 29.98395233 -59 28 C-62.2487588 37.55824533 -65.4485348 47.12582209 -68.3984375 56.78125 C-68.59927444 57.43704544 -68.80011139 58.09284088 -69.0070343 58.76850891 C-70.0061506 62.03477236 -70.99730894 65.30319071 -71.97827148 68.57495117 C-72.52463257 70.36896362 -72.52463257 70.36896362 -73.08203125 72.19921875 C-73.56506714 73.80543091 -73.56506714 73.80543091 -74.05786133 75.4440918 C-75 78 -75 78 -77 80 C-79.70922801 80.19852102 -82.29303179 80.27839477 -85 80.25 C-86.10601563 80.26160156 -86.10601563 80.26160156 -87.234375 80.2734375 C-92.7466804 80.2533196 -92.7466804 80.2533196 -95 78 C-95.81798061 75.71593126 -96.54659826 73.45944915 -97.23071289 71.13525391 C-97.4439772 70.42937637 -97.65724152 69.72349884 -97.87696838 68.99623108 C-98.58167328 66.65813857 -99.27721174 64.31742453 -99.97265625 61.9765625 C-100.46011562 60.35216571 -100.94811426 58.72793066 -101.43663025 57.10385132 C-102.72261707 52.82286637 -104.00073296 48.53956888 -105.27740479 44.25579834 C-106.31992287 40.76239423 -107.36787901 37.27063339 -108.41616154 33.77895546 C-110.58270987 26.56219367 -112.74569539 19.3443553 -114.89868164 12.12353516 C-115.19714996 11.12591408 -115.19714996 11.12591408 -115.50164795 10.10813904 C-116.40103705 7.086388 -117.27248433 4.06814625 -118 1 C-112.03582762 -0.42645931 -106.09109558 -0.06152622 -100 0 C-96.202663 11.8320154 -92.99718437 23.82089138 -89.75 35.8125 C-89.19030263 37.87310079 -88.63040832 39.9336481 -88.0703125 41.99414062 C-86.71127149 46.99548036 -85.35489394 51.99753528 -84 57 C-83.85209015 56.39674393 -83.7041803 55.79348785 -83.55178833 55.17195129 C-82.85763219 52.4396113 -82.02031199 49.76516909 -81.1796875 47.07421875 C-80.81222412 45.89496826 -80.44476074 44.71571777 -80.06616211 43.50073242 C-79.67307861 42.24236572 -79.27999512 40.98399902 -78.875 39.6875 C-78.0602922 37.07319814 -77.24670725 34.45854813 -76.43359375 31.84375 C-76.22922195 31.18662521 -76.02485016 30.52950043 -75.81428528 29.85246277 C-72.83073086 20.24889505 -69.91328333 10.62507825 -67 1 C-65.43784452 0.83013455 -63.8752548 0.66426036 -62.3125 0.5 C-61.44238281 0.4071875 -60.57226562 0.314375 -59.67578125 0.21875 C-57.10183975 0.00832559 -54.5808941 -0.01512612 -52 0 C-49.15483207 6.82071914 -46.73662172 13.6829832 -44.58203125 20.75 C-44.27931808 21.7299292 -43.97660492 22.7098584 -43.66471863 23.71948242 C-42.71006621 26.81179891 -41.76094811 29.90577554 -40.8125 33 C-39.8524839 36.12251543 -38.89127883 39.24465532 -37.92814636 42.36621094 C-37.33182927 44.29983774 -36.73745462 46.23406487 -36.1452179 48.16894531 C-35.74426155 49.4717041 -35.74426155 49.4717041 -35.33520508 50.80078125 C-35.10078201 51.56559814 -34.86635895 52.33041504 -34.62483215 53.1184082 C-34.03032522 55.05813421 -34.03032522 55.05813421 -33 57 C-32.84379684 56.40388916 -32.68759369 55.80777832 -32.5266571 55.19360352 C-30.8930038 48.96253609 -29.25347335 42.73303607 -27.6105957 36.50439453 C-26.99907496 34.18284763 -26.38902959 31.86091157 -25.78051758 29.53857422 C-24.90317667 26.19133571 -24.02045524 22.84555486 -23.13671875 19.5 C-22.86784348 18.4694751 -22.5989682 17.4389502 -22.32194519 16.37719727 C-20.83538842 10.77259355 -19.14175131 5.38946594 -17 0 C-11.05516738 -0.84914948 -5.94253163 -0.97241427 0 0 Z " fill="#035EC1" transform="translate(666,484)"/>
<path d="M0 0 C4.03438436 -0.05026066 8.06864203 -0.0861162 12.10327148 -0.10986328 C13.4695148 -0.11978563 14.83573769 -0.13332786 16.2019043 -0.15087891 C41.31313939 -0.46488479 41.31313939 -0.46488479 50.19140625 6.23046875 C54.8232091 10.76223266 56.88714617 16.56733165 57 23 C55.75886679 29.69495895 52.7441412 34.22515238 48 39 C48.7425 39.391875 49.485 39.78375 50.25 40.1875 C54.86248086 43.2275442 57.23736244 46.83312682 59 52 C59.90780541 59.0618816 59.3326755 65.21043069 55 71 C48.27172505 78.158757 41.55431997 79.52205422 32 80 C27.89414624 80.07909816 23.79358716 80.05161643 19.6875 80 C12.03194184 79.81903732 12.03194184 79.81903732 4.45703125 80.6875 C2 81 2 81 0.36871338 79.94795227 C-1.67585337 77.03812578 -1.36670373 74.67476797 -1.35644531 71.14526367 C-1.35848969 70.45220627 -1.36053406 69.75914886 -1.36264038 69.04508972 C-1.36564985 66.75244815 -1.34716115 64.46052498 -1.328125 62.16796875 C-1.32506637 60.57237425 -1.32319104 58.97677707 -1.32244873 57.38117981 C-1.31784398 54.03453369 -1.30341606 50.68812795 -1.28125 47.34155273 C-1.25303628 43.0610848 -1.24204519 38.78080671 -1.2375679 34.50025463 C-1.23339996 31.20333472 -1.22356996 27.90645282 -1.21169281 24.60955238 C-1.20601145 23.03196832 -1.20124579 21.45438067 -1.19742584 19.876791 C-1.19051253 17.66543646 -1.17685486 15.4542273 -1.16113281 13.24291992 C-1.15430481 11.98621994 -1.14747681 10.72951996 -1.14044189 9.43473816 C-1.00832806 6.20367637 -0.61009013 3.17207723 0 0 Z M16 14 C14.41303156 17.17393689 14.8568553 20.58174205 14.875 24.0625 C14.87113281 24.80822266 14.86726563 25.55394531 14.86328125 26.32226562 C14.52788848 29.95917324 14.52788848 29.95917324 16 33 C18.57708556 33.15456568 21.10892521 33.23172843 23.6875 33.25 C24.39583984 33.270625 25.10417969 33.29125 25.83398438 33.3125 C30.62926964 33.34792224 33.81934193 32.58590856 38 30 C39.72074894 27.97999038 40.00283318 26.69979587 39.9921875 24.0703125 C39.73385552 21.00402419 39.43231227 18.67008402 37.75 16.0625 C33.37112205 13.40389553 28.14603751 13.87581484 23.1875 13.9375 C22.49462891 13.94201172 21.80175781 13.94652344 21.08789062 13.95117188 C19.39188932 13.96286844 17.69593297 13.98080076 16 14 Z M16 45 C14.99212187 48.02363439 14.86617117 50.08927716 14.875 53.25 C14.87242187 54.16265625 14.86984375 55.0753125 14.8671875 56.015625 C15.01741161 59.39124903 15.47712374 62.6635515 16 66 C19.04263267 66.10845027 22.08136204 66.18752063 25.125 66.25 C26.40890625 66.30027344 26.40890625 66.30027344 27.71875 66.3515625 C33.30322774 66.43747754 36.66629326 65.8969237 41 62 C42.47957757 59.42481828 42.92328873 56.96223539 43 54 C41.51285742 50.28214356 39.52153232 47.90353098 36 46 C29.37698636 44.69905089 22.72852326 44.89907215 16 45 Z " fill="#0F42A7" transform="translate(316,484)"/>
<path d="M0 0 C2.89226894 -0.38623467 5.4800661 -0.55528671 8.375 -0.5625 C9.14328125 -0.59923828 9.9115625 -0.63597656 10.703125 -0.67382812 C11.44820312 -0.67962891 12.19328125 -0.68542969 12.9609375 -0.69140625 C13.63946777 -0.70373291 14.31799805 -0.71605957 15.01708984 -0.72875977 C18.23504739 0.453905 19.47654023 3.1011403 21 6 C22.27892097 8.77773337 23.38398391 11.60643784 24.46875 14.46484375 C24.78614136 15.28339844 25.10353271 16.10195313 25.43054199 16.9453125 C26.46064322 19.60675208 27.48046903 22.27199543 28.5 24.9375 C29.2089971 26.77636929 29.91863787 28.61499052 30.62890625 30.45336914 C32.06465344 34.17202038 33.49655893 37.8921177 34.92578125 41.61328125 C36.84011363 46.59250156 38.7755193 51.56324914 40.71875 56.53125 C41.55046136 58.66161527 42.38185996 60.79210229 43.21313477 62.92263794 C43.73621917 64.26205781 44.26014035 65.60115121 44.78491211 66.93991089 C45.50563925 68.78030605 46.22170491 70.62252473 46.9375 72.46484375 C47.33839844 73.492146 47.73929688 74.51944824 48.15234375 75.57788086 C49 78 49 78 49 80 C47.20841511 80.02696365 45.41671527 80.04637917 43.625 80.0625 C42.62726563 80.07410156 41.62953125 80.08570313 40.6015625 80.09765625 C38 80 38 80 36 79 C35.67 79.66 35.34 80.32 35 81 C33.10644531 80.72485352 33.10644531 80.72485352 31 80 C29.70587518 77.26630973 28.70322956 74.78248519 27.75 71.9375 C26.8425 69.318125 25.935 66.69875 25 64 C14.44 64 3.88 64 -7 64 C-8.65 68.62 -10.3 73.24 -12 78 C-17.22623896 81.13574337 -18.13903356 81.31788516 -23.8125 80.6875 C-24.97394531 80.56761719 -26.13539063 80.44773437 -27.33203125 80.32421875 C-28.21246094 80.21722656 -29.09289062 80.11023438 -30 80 C-31.26626882 76.20119354 -30.52722797 75.11590327 -29.0703125 71.4375 C-28.61253418 70.26799805 -28.15475586 69.09849609 -27.68310547 67.89355469 C-27.16398332 66.59560457 -26.64460702 65.29775608 -26.125 64 C-25.59312534 62.65297992 -25.06205795 61.30564085 -24.53173828 59.95800781 C-23.35633274 56.97581988 -22.1749838 53.99606574 -20.99023438 51.01757812 C-19.19468885 46.49872091 -17.41761565 41.97277029 -15.64419556 37.44519043 C-14.10546762 33.51709191 -12.56310201 29.59042819 -11.0199585 25.6640625 C-10.25702673 23.72230578 -9.49485952 21.78024848 -8.73345947 19.83789062 C-7.65663535 17.09361799 -6.57507224 14.35126081 -5.4921875 11.609375 C-5.16869324 10.7825824 -4.84519897 9.95578979 -4.51190186 9.10394287 C-4.21003967 8.34228821 -3.90817749 7.58063354 -3.59716797 6.79589844 C-3.33580048 6.13217224 -3.07443298 5.46844604 -2.80514526 4.78460693 C-2 3 -2 3 0 0 Z M8 20 C6.43127245 23.96847107 4.86474846 27.93780246 3.30029297 31.90795898 C2.76737525 33.25943702 2.23384789 34.61067483 1.69970703 35.96166992 C0.93362954 37.89960435 0.16972314 39.83838209 -0.59375 41.77734375 C-1.05458984 42.94515381 -1.51542969 44.11296387 -1.99023438 45.31616211 C-3.05869004 47.67807291 -3.05869004 47.67807291 -3 49 C4.59 49 12.18 49 20 49 C15.18740931 34.43463484 15.18740931 34.43463484 10 20 C9.34 20 8.68 20 8 20 Z " fill="#0295E0" transform="translate(892,484)"/>
<path d="M0 0 C7.24807558 7.58519538 9.46290775 16.18702849 9.8125 26.5 C9.77125 27.263125 9.73 28.02625 9.6875 28.8125 C8.7284375 28.9671875 8.7284375 28.9671875 7.75 29.125 C7.069375 29.351875 6.38875 29.57875 5.6875 29.8125 C5.3575 30.8025 5.0275 31.7925 4.6875 32.8125 C4.6875 31.8225 4.6875 30.8325 4.6875 29.8125 C-7.5225 30.1425 -19.7325 30.4725 -32.3125 30.8125 C-29.41897832 39.48542595 -29.41897832 39.48542595 -25.125 41.9375 C-20.55025794 42.9874408 -16.82117037 43.2278157 -12.3125 41.8125 C-9.4153059 39.49976558 -9.4153059 39.49976558 -7.3125 36.8125 C-3.6683226 34.3830484 -1.60008728 34.65070425 2.6875 34.8125 C2.6875 35.1425 2.6875 35.4725 2.6875 35.8125 C5.6575 36.3075 5.6575 36.3075 8.6875 36.8125 C6.42100654 44.74522709 2.90319963 49.24528134 -4.0234375 53.5546875 C-11.26913585 57.53611219 -19.37591442 57.74907448 -27.375 56.1875 C-35.59969902 53.79486029 -42.18133833 48.24064647 -46.3125 40.8125 C-50.14310583 32.09206779 -50.67349575 23.1704432 -47.6875 14.125 C-43.98703063 5.08657133 -39.31690883 -0.27185039 -30.3125 -4.1875 C-19.31890951 -8.38505273 -9.62291609 -6.35475591 0 0 Z M-28.3125 9.8125 C-31.36541301 13.40126243 -31.36541301 13.40126243 -32.3125 17.8125 C-24.0625 17.8125 -15.8125 17.8125 -7.3125 17.8125 C-8.32342868 12.75785658 -8.54412197 11.84813786 -12.3125 8.8125 C-18.28758435 5.82495783 -22.52443722 6.71175208 -28.3125 9.8125 Z " fill="#027ED8" transform="translate(828.3125,509.1875)"/>
<path d="M0 0 C0 0.66 0 1.32 0 2 C0.70125 2.165 1.4025 2.33 2.125 2.5 C7.04141463 5.06508589 10.26106083 9.78318249 12 15 C12.14148209 17.46663807 12.23316042 19.91037323 12.28125 22.37890625 C12.30886414 23.46896217 12.30886414 23.46896217 12.33703613 24.58103943 C12.39571084 26.90811145 12.44846017 29.23525976 12.5 31.5625 C12.5684848 34.60559333 12.64074166 37.64854162 12.71875 40.69140625 C12.73703857 41.42017975 12.75532715 42.14895325 12.77416992 42.89981079 C12.89159223 46.96753077 13.14448268 50.98321789 13.59375 55.02734375 C13.7278125 56.33832031 13.861875 57.64929688 14 59 C13 60 13 60 9.62109375 60.09765625 C8.22652923 60.09098369 6.83198257 60.07902532 5.4375 60.0625 C4.72658203 60.05798828 4.01566406 60.05347656 3.28320312 60.04882812 C1.52209987 60.03700864 -0.23896036 60.01907263 -2 60 C-2.66 58.35 -3.32 56.7 -4 55 C-4.86625 55.78375 -5.7325 56.5675 -6.625 57.375 C-12.21192259 61.97216474 -17.96912929 62.57586179 -25 62 C-25.99 61.67 -26.98 61.34 -28 61 C-28.33 61.66 -28.66 62.32 -29 63 C-34.24711007 59.50192662 -38.97747388 55.06757837 -41 49 C-41.48988853 43.43454509 -41.76814541 38.59319048 -39.3125 33.5 C-32.90158523 26.56928133 -25.43960994 23.28434641 -15.9921875 22.8671875 C-14.96351563 22.86976563 -13.93484375 22.87234375 -12.875 22.875 C-11.32425781 22.87113281 -11.32425781 22.87113281 -9.7421875 22.8671875 C-7 23 -7 23 -4 24 C-4.26085897 19.16628617 -4.26085897 19.16628617 -6.625 15.125 C-11.25279029 12.93288881 -14.74681084 12.66015209 -19.6875 14 C-23.89926142 16.54295029 -24.76704559 18.69358792 -27 23 C-27.99 23.33 -28.98 23.66 -30 24 C-30.350625 23.525625 -30.70125 23.05125 -31.0625 22.5625 C-33.84163543 20.32126175 -36.5144717 20.32882342 -40 20 C-39.28755885 14.30047081 -37.34496527 9.06375086 -32.98046875 5.22265625 C-22.78930826 -1.87816937 -11.9380011 -2.17054565 0 0 Z M-25 38 C-26.44340585 41.12737935 -26.15647513 42.47039185 -25.1875 45.75 C-24.20530756 48.13996162 -24.20530756 48.13996162 -22 49 C-16.93206684 49.55601425 -13.07812809 49.55831633 -8.5 47.1875 C-5.85486935 45.06495548 -5.85486935 45.06495548 -4 42 C-3.92094936 39.66800612 -3.91201231 37.33167378 -4 35 C-11.44007612 32.93889783 -18.70722401 33.0807741 -25 38 Z " fill="#0366CA" transform="translate(704,504)"/>
<path d="M0 0 C5.52462383 4.49124095 7.75374849 9.03134423 9 16 C9.24587527 19.25490175 9.23467833 22.48735971 9.1953125 25.75 C9.1924826 26.64871826 9.18965271 27.54743652 9.18673706 28.47338867 C9.17563125 31.31573365 9.15054505 34.15775186 9.125 37 C9.11495777 38.9387975 9.10583411 40.87759999 9.09765625 42.81640625 C9.07572345 47.54439482 9.04126084 52.2721422 9 57 C4.38 57 -0.24 57 -5 57 C-5.66 55.35 -6.32 53.7 -7 52 C-7.92232422 52.63228516 -7.92232422 52.63228516 -8.86328125 53.27734375 C-9.67152344 53.82519531 -10.47976563 54.37304688 -11.3125 54.9375 C-12.51326172 55.75541016 -12.51326172 55.75541016 -13.73828125 56.58984375 C-18.34883013 59.46446922 -22.72839878 59.57493654 -28 59 C-34.72837169 57.25560734 -39.2807633 54.92753349 -43 49 C-45.23015789 43.52597608 -45.18669514 39.65962298 -44 34 C-41.94575937 29.20677186 -38.40161465 25.71588989 -34 23 C-25.77614643 19.81503937 -15.51851937 18.16049354 -7 21 C-7.63589324 17.78079046 -8.42086067 14.88982498 -10 12 C-13.82209319 9.54662937 -17.45604512 9.91974436 -21.8125 10.5625 C-25.18250177 11.66832946 -25.18250177 11.66832946 -26.21875 14.5703125 C-26.8065625 15.37210938 -27.394375 16.17390625 -28 17 C-30.78599571 17.38060051 -32.93372751 17.47962905 -35.6875 17.3125 C-36.38939453 17.28994141 -37.09128906 17.26738281 -37.81445312 17.24414062 C-39.5438833 17.18531647 -41.27221438 17.09563389 -43 17 C-42.10555032 10.1990981 -40.32230683 5.49361432 -35 1 C-24.32097736 -5.75653548 -11.11751811 -6.22301328 0 0 Z M-27 34 C-29.36139302 36.89461901 -29.36139302 36.89461901 -28.8125 40.5625 C-28.35160238 44.25825752 -28.35160238 44.25825752 -25 46 C-20.00197359 46.73981114 -16.03606467 46.51803233 -11.5 44.25 C-8.50639766 41.56932907 -8.50639766 41.56932907 -7 38 C-6.83275263 34.83304044 -6.83275263 34.83304044 -7 32 C-7.66 32.66 -8.32 33.32 -9 34 C-9.33 33.505 -9.66 33.01 -10 32.5 C-15.20838996 28.59370753 -21.8797391 31.23505911 -27 34 Z " fill="#0B4EB3" transform="translate(468,507)"/>
<path d="M0 0 C5.27849786 3.67280096 7.57391867 8.45486981 9.234375 14.5546875 C9.49994608 17.88804886 9.46761513 21.20476657 9.4296875 24.546875 C9.4268576 25.49281525 9.42402771 26.43875549 9.42111206 27.4133606 C9.40996432 30.41893444 9.38486965 33.42420452 9.359375 36.4296875 C9.34933821 38.47395401 9.34021359 40.51822522 9.33203125 42.5625 C9.31004267 47.56001194 9.27555009 52.5572983 9.234375 57.5546875 C4.284375 57.5546875 -0.665625 57.5546875 -5.765625 57.5546875 C-7.88812588 53.30968574 -7.98350064 50.50659536 -7.85546875 45.9375 C-7.83504349 44.42838869 -7.81486903 42.91927396 -7.79492188 41.41015625 C-7.7514971 39.04460977 -7.70311605 36.67929501 -7.64916992 34.31396484 C-7.60065003 32.02181802 -7.57093878 29.72997656 -7.54296875 27.4375 C-7.52121078 26.73730743 -7.49945282 26.03711487 -7.47703552 25.31570435 C-7.43026042 20.64418602 -8.28989857 17.51367514 -10.765625 13.5546875 C-14.98640762 11.19072204 -19.04798568 11.38106508 -23.640625 12.4921875 C-27.37716781 14.95830576 -28.54377522 17.38990668 -29.765625 21.5546875 C-30.18361568 24.41216161 -30.25280689 27.22823748 -30.27734375 30.11328125 C-30.29529495 30.90243423 -30.31324615 31.69158722 -30.33174133 32.50465393 C-30.38549028 35.0004457 -30.41962465 37.49605022 -30.453125 39.9921875 C-30.4863295 41.69468732 -30.52082202 43.39716254 -30.55664062 45.09960938 C-30.64119566 49.25116614 -30.70817412 53.4026708 -30.765625 57.5546875 C-32.4947024 57.58194091 -34.22390676 57.60119737 -35.953125 57.6171875 C-36.91605469 57.62878906 -37.87898438 57.64039063 -38.87109375 57.65234375 C-41.62139013 57.55955372 -44.09042091 57.17580435 -46.765625 56.5546875 C-47.81067563 53.41953561 -47.85375952 51.3568943 -47.78735352 48.07348633 C-47.76725723 46.95255081 -47.74716095 45.8316153 -47.72645569 44.67671204 C-47.69942062 43.46726425 -47.67238556 42.25781647 -47.64453125 41.01171875 C-47.62092026 39.77298508 -47.59730927 38.5342514 -47.57298279 37.25798035 C-47.50933669 33.96830238 -47.44113147 30.67876017 -47.37072754 27.38922119 C-47.29997351 24.03104013 -47.23519889 20.67274433 -47.16992188 17.31445312 C-47.04067393 10.727742 -46.90486328 4.14119471 -46.765625 -2.4453125 C-41.485625 -2.4453125 -36.205625 -2.4453125 -30.765625 -2.4453125 C-30.435625 -0.4653125 -30.105625 1.5146875 -29.765625 3.5546875 C-27.7410512 1.62213978 -26.34456708 -0.07689938 -24.765625 -2.4453125 C-23.445625 -2.4453125 -22.125625 -2.4453125 -20.765625 -2.4453125 C-12.9191202 -4.32231953 -7.21161291 -3.96414747 0 0 Z " fill="#0657BC" transform="translate(535.765625,506.4453125)"/>
<path d="M0 0 C5.61 0 11.22 0 17 0 C17.84304688 2.55234375 18.68609375 5.1046875 19.5546875 7.734375 C20.37476173 10.21020262 21.19587527 12.68568324 22.01708984 15.16113281 C22.58653738 16.87952259 23.15490656 18.59827013 23.72216797 20.31738281 C24.53849461 22.79066668 25.35871161 25.2626311 26.1796875 27.734375 C26.43185028 28.50118591 26.68401306 29.26799683 26.94381714 30.05804443 C28.10353574 33.5379299 29.35422444 36.70844887 31 40 C35.29 26.8 39.58 13.6 44 0 C49.61 0 55.22 0 61 0 C59.81815021 5.81877242 58.32538318 11.19059625 56.0625 16.6875 C52.30211402 26.07083489 48.83299167 35.55570469 45.37771606 45.05429077 C44.8977528 46.37367517 44.41740547 47.69291993 43.93663025 49.01200867 C43.29395832 50.77579906 42.65303058 52.54022471 42.01220703 54.3046875 C41 57 41 57 40 59 C33.8159722 60.30060902 27.28792678 60.10141817 21 60 C18.38422744 53.73753275 16.02294196 47.39323943 13.75 41 C13.47978027 40.245979 13.20956055 39.49195801 12.93115234 38.71508789 C11 33.24017785 11 33.24017785 11 31 C10.34 30.67 9.68 30.34 9 30 C8.359375 28.3125 8.359375 28.3125 7.75 26 C6.11373405 20.15861535 4.07405864 14.49287215 1.98144531 8.80273438 C0.87549511 5.74289232 0 3.28038746 0 0 Z " fill="#026DCE" transform="translate(719,504)"/>
<path d="M0 0 C1 1 1 1 1.09765625 4.59765625 C1.0909822 6.08596867 1.07902183 7.57426432 1.0625 9.0625 C1.05798828 9.82111328 1.05347656 10.57972656 1.04882812 11.36132812 C1.0370068 13.24091871 1.01907078 15.12046899 1 17 C0.20335937 16.95359375 -0.59328125 16.9071875 -1.4140625 16.859375 C-8.22301213 16.62108635 -8.22301213 16.62108635 -14.625 18.6875 C-19.16337639 23.10644544 -19.31628013 27.84865395 -19.4140625 33.92578125 C-19.43342865 34.67337204 -19.4527948 35.42096283 -19.4727478 36.19120789 C-19.53223918 38.56485806 -19.57880592 40.93855754 -19.625 43.3125 C-19.66320789 44.92775482 -19.70226125 46.54298987 -19.7421875 48.15820312 C-19.8379153 52.1053071 -19.92205767 56.05250639 -20 60 C-20.99 60.495 -20.99 60.495 -22 61 C-22.99 60.67 -23.98 60.34 -25 60 C-25.33 60.66 -25.66 61.32 -26 62 C-26.9075 61.835 -27.815 61.67 -28.75 61.5 C-32.11087503 60.89862854 -32.11087503 60.89862854 -36 61 C-36 41.2 -36 21.4 -36 1 C-31.05 1 -26.1 1 -21 1 C-20.67 3.31 -20.34 5.62 -20 8 C-19.29875 7.236875 -18.5975 6.47375 -17.875 5.6875 C-12.31740635 0.49235811 -7.43668092 -0.81412086 0 0 Z " fill="#0E47AD" transform="translate(420,503)"/>
<path d="M0 0 C2.35955184 3.67544592 2.27065368 7.20851117 2.22705078 11.43066406 C2.22734283 12.17251953 2.22763489 12.914375 2.22793579 13.67871094 C2.22654533 16.12446901 2.21099765 18.56992032 2.1953125 21.015625 C2.19158136 22.71384515 2.18873486 24.41206745 2.18673706 26.11029053 C2.17910857 30.57537807 2.15946681 35.04033506 2.1373291 39.50537109 C2.11685379 44.0634586 2.10773174 48.62156724 2.09765625 53.1796875 C2.07622018 62.11984896 2.04209368 71.05991361 2 80 C-1.83724172 80.90413673 -5.37502274 81.10576898 -9.3125 81.0625 C-10.38113281 81.05347656 -11.44976563 81.04445313 -12.55078125 81.03515625 C-13.35902344 81.02355469 -14.16726563 81.01195312 -15 81 C-15.15376286 71.01234357 -15.30194437 61.02462152 -15.4429636 51.03677654 C-15.50861776 46.39922737 -15.57620788 41.76172313 -15.64819336 37.12426758 C-15.71756799 32.65045079 -15.78189514 28.1765875 -15.84269524 23.70264626 C-15.86680579 21.99416269 -15.89274752 20.28570396 -15.92053413 18.57727623 C-15.95908635 16.18786886 -15.9911782 13.79845673 -16.02172852 11.40893555 C-16.03467453 10.69971451 -16.04762054 9.99049347 -16.06095886 9.25978088 C-16.0939323 6.20570457 -15.97508055 3.92524166 -15 1 C-12.87506859 0.97306425 -10.75004088 0.95363372 -8.625 0.9375 C-7.44164062 0.92589844 -6.25828125 0.91429687 -5.0390625 0.90234375 C-2 1 -2 1 0 2 C0 1.34 0 0.68 0 0 Z " fill="#0097E3" transform="translate(962,483)"/>
<path d="M0 0 C3.5625 0.5625 3.5625 0.5625 5.1953125 2.13671875 C7.56585518 5.53708735 8.67998394 7.56388651 8.1875 11.75 C6.26752489 15.07303385 4.63872007 17.23824484 1.5625 19.5625 C-2.74024909 20.25401325 -4.64695312 20.07807405 -8.3125 17.6875 C-11.03794891 14.96205109 -11.38419869 14.12749391 -11.75 10.25 C-11.38637565 5.95923265 -10.5350514 4.48796521 -7.4375 1.5625 C-5.02754588 0.48217574 -2.62920115 0.43023291 0 0 Z " fill="#0185DD" transform="translate(852.4375,545.4375)"/>
<path d="M0 0 C0 0.66 0 1.32 0 2 C0.70125 2.165 1.4025 2.33 2.125 2.5 C7.04141463 5.06508589 10.26106083 9.78318249 12 15 C12.14148209 17.46663807 12.23316042 19.91037323 12.28125 22.37890625 C12.30886414 23.46896217 12.30886414 23.46896217 12.33703613 24.58103943 C12.39571084 26.90811145 12.44846017 29.23525976 12.5 31.5625 C12.5684848 34.60559333 12.64074166 37.64854162 12.71875 40.69140625 C12.73703857 41.42017975 12.75532715 42.14895325 12.77416992 42.89981079 C12.89159223 46.96753077 13.14448268 50.98321789 13.59375 55.02734375 C13.7278125 56.33832031 13.861875 57.64929688 14 59 C13.67 59.33 13.34 59.66 13 60 C10.80949979 59.90982004 8.621534 59.75333792 6.4375 59.5625 C5.23996094 59.46066406 4.04242187 59.35882812 2.80859375 59.25390625 C1.88175781 59.17011719 0.95492187 59.08632813 0 59 C0 58.67 0 58.34 0 58 C3.63 58 7.26 58 11 58 C10.67 57.34 10.34 56.68 10 56 C9.87892723 53.00954004 9.81423576 50.03843016 9.7890625 47.046875 C9.76098522 45.21223079 9.7323207 43.3775955 9.703125 41.54296875 C9.66192407 38.64860362 9.62504017 35.75440329 9.59863281 32.85986328 C9.57094493 30.06768306 9.52506388 27.27626106 9.4765625 24.484375 C9.47330963 23.62479187 9.47005676 22.76520874 9.46670532 21.87957764 C9.33290272 15.30559942 8.03383138 11.08112979 3.3125 6.25 C-3.00702051 1.43291452 -11.3662989 1.17137573 -19 2 C-24.30360527 3.22658939 -29.33910764 4.72576511 -33.0625 8.875 C-34.93542487 11.89584657 -36.10170123 14.57013197 -37 18 C-33.37 18 -29.74 18 -26 18 C-25.67 17.34 -25.34 16.68 -25 16 C-25.49831724 19.68754757 -26.10067643 21.60490662 -29 24 C-30.32 23.34 -31.64 22.68 -33 22 C-33 21.67 -33 21.34 -33 21 C-35.31 20.67 -37.62 20.34 -40 20 C-39.28755885 14.30047081 -37.34496527 9.06375086 -32.98046875 5.22265625 C-22.78930826 -1.87816937 -11.9380011 -2.17054565 0 0 Z " fill="#125FB3" transform="translate(704,504)"/>
<path d="M0 0 C4.95 0 9.9 0 15 0 C15 0.33 15 0.66 15 1 C8.565 1.495 8.565 1.495 2 2 C4.36344731 8.56631794 6.7296569 15.13163144 9.09838867 21.69604492 C9.90317843 23.92754422 10.70722368 26.15931218 11.51049805 28.39135742 C12.66778255 31.60667355 13.82777491 34.82100179 14.98828125 38.03515625 C15.52283684 39.52306419 15.52283684 39.52306419 16.06819153 41.04103088 C16.40831772 41.98147751 16.74844391 42.92192413 17.09887695 43.89086914 C17.39421829 44.71027481 17.68955963 45.52968048 17.99385071 46.37391663 C19.2372945 49.61934659 20.63094096 52.80552892 22 56 C27.28 56.33 32.56 56.66 38 57 C38.33 55.02 38.66 53.04 39 51 C39.45282811 49.50435786 39.94877195 48.02097001 40.49047852 46.55517578 C40.79071426 45.73477814 41.09095001 44.91438049 41.40028381 44.06912231 C41.72322922 43.20326508 42.04617462 42.33740784 42.37890625 41.4453125 C42.71043198 40.54376434 43.0419577 39.64221619 43.38352966 38.71334839 C44.43823083 35.84870916 45.50024961 32.98684733 46.5625 30.125 C47.28108439 28.17726236 47.99918871 26.22934753 48.71679688 24.28125 C50.47231095 19.5187632 52.23439057 14.75875287 54 10 C54.33 10 54.66 10 55 10 C54.55590648 18.11761641 51.53114312 25.35002887 48.6875 32.875 C48.19520104 34.19893547 47.7036592 35.52315272 47.21289062 36.84765625 C44.5762713 43.9388878 41.85632888 50.99398826 39 58 C32.6243157 58.72445775 26.41925741 59.10353641 20 59 C17.38422744 52.73753275 15.02294196 46.39323943 12.75 40 C12.47978027 39.245979 12.20956055 38.49195801 11.93115234 37.71508789 C10 32.24017785 10 32.24017785 10 30 C9.34 29.67 8.68 29.34 8 29 C7.32421875 27.2421875 7.32421875 27.2421875 6.6875 24.875 C5.76891269 21.59838959 4.80019024 18.3585616 3.6953125 15.140625 C3.46755127 14.47691895 3.23979004 13.81321289 3.00512695 13.12939453 C2.54961076 11.81117531 2.08992633 10.49438778 1.62573242 9.17919922 C0.4936187 5.87781511 0 3.54645543 0 0 Z " fill="#1058A7" transform="translate(720,505)"/>
<path d="M0 0 C2.35955184 3.67544592 2.27065368 7.20851117 2.22705078 11.43066406 C2.22734283 12.17251953 2.22763489 12.914375 2.22793579 13.67871094 C2.22654533 16.12446901 2.21099765 18.56992032 2.1953125 21.015625 C2.19158136 22.71384515 2.18873486 24.41206745 2.18673706 26.11029053 C2.17910857 30.57537807 2.15946681 35.04033506 2.1373291 39.50537109 C2.11685379 44.0634586 2.10773174 48.62156724 2.09765625 53.1796875 C2.07622018 62.11984896 2.04209368 71.05991361 2 80 C-1.83724172 80.90413673 -5.37502274 81.10576898 -9.3125 81.0625 C-10.38113281 81.05347656 -11.44976563 81.04445313 -12.55078125 81.03515625 C-13.35902344 81.02355469 -14.16726563 81.01195312 -15 81 C-15.15376286 71.01234357 -15.30194437 61.02462152 -15.4429636 51.03677654 C-15.50861776 46.39922737 -15.57620788 41.76172313 -15.64819336 37.12426758 C-15.71756799 32.65045079 -15.78189514 28.1765875 -15.84269524 23.70264626 C-15.86680579 21.99416269 -15.89274752 20.28570396 -15.92053413 18.57727623 C-15.95908635 16.18786886 -15.9911782 13.79845673 -16.02172852 11.40893555 C-16.03467453 10.69971451 -16.04762054 9.99049347 -16.06095886 9.25978088 C-16.0939323 6.20570457 -15.97508055 3.92524166 -15 1 C-12.87506859 0.97306425 -10.75004088 0.95363372 -8.625 0.9375 C-7.44164062 0.92589844 -6.25828125 0.91429687 -5.0390625 0.90234375 C-2 1 -2 1 0 2 C0 1.34 0 0.68 0 0 Z M-14 3 C-14 28.08 -14 53.16 -14 79 C-9.38 79 -4.76 79 0 79 C0.02255209 69.36886982 0.0409157 59.73775705 0.05181217 50.10660648 C0.05704074 45.63494451 0.06413789 41.16330147 0.07543945 36.69165039 C0.08626929 32.37988027 0.09227704 28.06812841 0.09487724 23.75634575 C0.09673132 22.10763702 0.1003516 20.45892934 0.10573006 18.81022835 C0.11294178 16.50896128 0.11399089 14.2077706 0.11352539 11.90649414 C0.11685631 9.93792198 0.11685631 9.93792198 0.12025452 7.92958069 C0.33587809 5.11004121 0.33587809 5.11004121 -1 4 C-5.29 3.67 -9.58 3.34 -14 3 Z " fill="#0D6EB0" transform="translate(962,483)"/>
<path d="M0 0 C2.50987874 2.23605864 3.70443777 4.21583457 4.92602539 7.33422852 C5.27422333 8.21189377 5.62242126 9.08955902 5.98117065 9.99382019 C6.3496109 10.94589859 6.71805115 11.89797699 7.09765625 12.87890625 C7.48865509 13.87106644 7.87965393 14.86322662 8.28250122 15.88545227 C9.55022992 19.10816265 10.80661954 22.33515605 12.0625 25.5625 C12.92367449 27.76014812 13.78540966 29.95757661 14.64770508 32.15478516 C16.73775514 37.48669876 18.81819799 42.82229129 20.89440918 48.15960693 C21.88343944 50.7005422 22.87496267 53.24047806 23.86816406 55.77978516 C25.31371764 59.47595806 26.7526795 63.17464467 28.1875 66.875 C28.5904126 67.91084229 28.9933252 68.94668457 29.40844727 70.01391602 C29.76221436 70.93487061 30.11598145 71.8558252 30.48046875 72.8046875 C30.77848389 73.57796387 31.07649902 74.35124023 31.38354492 75.14794922 C32 77 32 77 32 79 C30.20841511 79.02696365 28.41671527 79.04637917 26.625 79.0625 C25.62726562 79.07410156 24.62953125 79.08570313 23.6015625 79.09765625 C21 79 21 79 19 78 C18.67 78.66 18.34 79.32 18 80 C16.17578125 79.89453125 16.17578125 79.89453125 14 79 C12.48046875 76.19921875 12.48046875 76.19921875 11.1875 72.6875 C10.74792969 71.53636719 10.30835938 70.38523437 9.85546875 69.19921875 C9.04224932 66.15800087 8.84916214 64.85944375 10 62 C11.74949772 64.62424658 12.65389981 66.55727216 13.625 69.5 C13.88539063 70.2734375 14.14578125 71.046875 14.4140625 71.84375 C15 74 15 74 15 77 C19.62 77 24.24 77 29 77 C24.48005153 64.8250762 19.79698698 52.7179065 15.0625 40.625 C14.37815033 38.87504101 13.69390521 37.12504113 13.00976562 35.375 C12.67238373 34.51211365 12.33500183 33.64922729 11.98739624 32.76019287 C11.31572135 31.04176688 10.6443505 29.32322201 9.97329712 27.60455322 C8.3017729 23.32429564 6.62469449 19.04637566 4.93701172 14.77246094 C4.29002399 13.12695905 3.64305072 11.48145148 2.99609375 9.8359375 C2.69333023 9.07374908 2.39056671 8.31156067 2.07862854 7.52627563 C0 2.22588548 0 2.22588548 0 0 Z " fill="#0E82C4" transform="translate(909,485)"/>
<path d="M0 0 C4.95 0 9.9 0 15 0 C15 2.64 15 5.28 15 8 C14.67 8 14.34 8 14 8 C14 6.02 14 4.04 14 2 C10.04 2 6.08 2 2 2 C2 20.48 2 38.96 2 58 C5.96 58 9.92 58 14 58 C14 46.45 14 34.9 14 23 C14.33 23 14.66 23 15 23 C15 34.88 15 46.76 15 59 C3.75 60.125 3.75 60.125 0 59 C-1.04505063 55.86484811 -1.08813452 53.8022068 -1.02172852 50.51879883 C-1.00163223 49.39786331 -0.98153595 48.2769278 -0.96083069 47.12202454 C-0.93379562 45.91257675 -0.90676056 44.70312897 -0.87890625 43.45703125 C-0.85529526 42.21829758 -0.83168427 40.9795639 -0.80735779 39.70329285 C-0.74371169 36.41361488 -0.67550647 33.12407267 -0.60510254 29.83453369 C-0.53434851 26.47635263 -0.46957389 23.11805683 -0.40429688 19.75976562 C-0.27504893 13.1730545 -0.13923828 6.58650721 0 0 Z " fill="#0D449D" transform="translate(489,504)"/>
<path d="M0 0 C1.55074219 -0.03867187 1.55074219 -0.03867187 3.1328125 -0.078125 C5.875 0.25 5.875 0.25 7.7421875 1.765625 C8.11601563 2.25546875 8.48984375 2.7453125 8.875 3.25 C8.00359375 3.21519531 7.1321875 3.18039062 6.234375 3.14453125 C-3.00462311 2.93455402 -13.0019524 3.23902908 -21.125 8.25 C-25.04156387 13.07317587 -25.821914 18.64010317 -25.5703125 24.6953125 C-24.82817936 28.95281315 -23.4271865 30.43962851 -20.125 33.25 C-12.51491551 37.64043336 -5.26678987 36.65795997 3.02734375 35.078125 C5.48629625 33.97601521 5.81574352 32.66039696 6.875 30.25 C9 29 9 29 10.875 28.25 C8.23520918 33.25170892 5.29208268 36.15132605 0.125 38.5 C-5.04313469 39.69264647 -10.06550295 39.93649902 -15.125 38.25 C-15.455 38.91 -15.785 39.57 -16.125 40.25 C-21.37211007 36.75192662 -26.10247388 32.31757837 -28.125 26.25 C-28.61488853 20.68454509 -28.89314541 15.84319048 -26.4375 10.75 C-19.11911119 2.83822832 -10.64238684 0.16003589 0 0 Z " fill="#135BAD" transform="translate(691.125,526.75)"/>
<path d="M0 0 C3.13144586 1.42374976 6.2538722 2.86628776 9.375 4.3125 C10.26445312 4.71662109 11.15390625 5.12074219 12.0703125 5.53710938 C12.92109375 5.93349609 13.771875 6.32988281 14.6484375 6.73828125 C15.43395996 7.09962158 16.21948242 7.46096191 17.02880859 7.83325195 C19 9 19 9 21 12 C12.30418944 11.23861566 12.30418944 11.23861566 8.203125 10.48828125 C-1.412272 8.76775971 -10.86500135 8.85264365 -20.61083984 8.98608398 C-28.46486381 9.07902125 -36.17938612 8.73412048 -44 8 C-43.67 7.34 -43.34 6.68 -43 6 C-27.58032136 5.04933898 -12.41967864 5.04933898 3 6 C1.68 4.68 0.36 3.36 -1 2 C-0.67 1.34 -0.34 0.68 0 0 Z " fill="#3C6EEE" transform="translate(268,559)"/>
<path d="M0 0 C0 0.33 0 0.66 0 1 C-0.91587891 1.19110352 -1.83175781 1.38220703 -2.77539062 1.57910156 C-6.25752808 2.30724857 -9.73904622 3.03823667 -13.22021484 3.77099609 C-14.71119624 4.08426505 -16.20239896 4.39648294 -17.69384766 4.70751953 C-25.65248385 6.36803174 -33.56997206 8.10685621 -41.4453125 10.12890625 C-47.38918852 11.64987396 -53.29473134 12.86297105 -59.375 13.6875 C-60.17292969 13.80416016 -60.97085938 13.92082031 -61.79296875 14.04101562 C-71.27203985 15.39626246 -80.544817 16.14995954 -90.125 16.0625 C-91.08148438 16.05798828 -92.03796875 16.05347656 -93.0234375 16.04882812 C-95.34902758 16.03720017 -97.6744776 16.02086102 -100 16 C-100 15.67 -100 15.34 -100 15 C-96.7 15 -93.4 15 -90 15 C-90 14.34 -90 13.68 -90 13 C-88.72125 13.02320313 -87.4425 13.04640625 -86.125 13.0703125 C-84.41667255 13.08908533 -82.70833873 13.10728389 -81 13.125 C-80.16082031 13.14175781 -79.32164062 13.15851562 -78.45703125 13.17578125 C-72.9109767 13.21877392 -68.34287902 12.45714882 -63 11 C-60.83924626 10.73733957 -58.67161784 10.52306485 -56.5 10.375 C-54.93765625 10.26285156 -54.93765625 10.26285156 -53.34375 10.1484375 C-52.18359375 10.07496094 -52.18359375 10.07496094 -51 10 C-51 9.34 -51 8.68 -51 8 C-50.030625 7.90203125 -49.06125 7.8040625 -48.0625 7.703125 C-40.63366772 6.89576511 -33.38398265 5.79806602 -26.125 4 C-25.44179687 3.8340332 -24.75859375 3.66806641 -24.0546875 3.49707031 C-21.03465647 2.71597489 -19.24420731 2.24420731 -17 0 C-14.35546875 -0.44921875 -14.35546875 -0.44921875 -11.1875 -0.6875 C-10.14980469 -0.77386719 -9.11210937 -0.86023438 -8.04296875 -0.94921875 C-5.17439916 -0.99708962 -2.77595142 -0.68244277 0 0 Z " fill="#365BF2" transform="translate(218,568)"/>
<path d="M0 0 C2 1 2 1 3.14160156 4.04077148 C3.56573099 5.39847041 3.98144048 6.75881618 4.390625 8.12109375 C4.61604477 8.84891052 4.84146454 9.57672729 5.07371521 10.32659912 C5.80591506 12.69487119 6.52782929 15.06615269 7.25 17.4375 C7.99296521 19.84728886 8.73875903 22.25618889 9.48490906 24.66499329 C9.97571781 26.24961253 10.46572172 27.83448128 10.95491028 29.41960144 C13.50162526 37.66033175 16.22756483 45.83255586 19 54 C23.95 54.33 28.9 54.66 34 55 C34.45375 53.14375 34.9075 51.2875 35.375 49.375 C36.42097228 45.18119645 37.53048615 41.06942297 39 37 C39.33 37 39.66 37 40 37 C39.68344616 44.43901529 38.01491905 50.19211828 35 57 C29.06 57 23.12 57 17 57 C14.73240241 50.00973317 12.47228803 43.01710752 10.21899414 36.0222168 C9.45182861 33.64427898 8.68264278 31.26699194 7.91137695 28.89038086 C6.80144614 25.4689887 5.69886501 22.04530166 4.59765625 18.62109375 C4.25283707 17.56353378 3.90801788 16.50597382 3.55274963 15.41636658 C1.90386506 10.26510919 0.53448922 5.3880497 0 0 Z " fill="#1455A5" transform="translate(607,507)"/>
<path d="M0 0 C-3 2 -3 2 -5.26953125 3.19140625 C-13.07073834 7.39758703 -16.99781792 12.17656136 -20.375 20.3125 C-22.27404654 31.5168746 -20.80283892 40.58270932 -15 50.375 C-7.60845321 56.84260344 1.38798206 58.79186575 11 59 C11 59.33 11 59.66 11 60 C1.17507855 60.70739434 -6.18247965 60.64635626 -14 54 C-20.38797447 48.04695145 -23.41234784 41.1847981 -24.23828125 32.4921875 C-24.51252114 22.8216231 -21.91552225 14.30283963 -15.7734375 6.7265625 C-11.22466961 2.29802636 -6.39763245 -0.35979655 0 0 Z " fill="#1269B7" transform="translate(803,505)"/>
<path d="M0 0 C4.95 0 9.9 0 15 0 C15 3.3 15 6.6 15 10 C14.67 10 14.34 10 14 10 C14 7.36 14 4.72 14 2 C10.04 2 6.08 2 2 2 C2 20.48 2 38.96 2 58 C3.32 58.33 4.64 58.66 6 59 C3.03 59.495 3.03 59.495 0 60 C0 40.2 0 20.4 0 0 Z " fill="#19469F" transform="translate(384,504)"/>
<path d="M0 0 C4.08666352 0.74302973 8.05018922 1.70871571 12 3 C12.33 3.66 12.66 4.32 13 5 C14.85380853 5.91783924 14.85380853 5.91783924 17.11328125 6.69140625 C18.3672168 7.14870117 18.3672168 7.14870117 19.64648438 7.61523438 C20.52626953 7.92783203 21.40605469 8.24042969 22.3125 8.5625 C23.18068359 8.87896484 24.04886719 9.19542969 24.94335938 9.52148438 C32.94181434 12.71388354 32.94181434 12.71388354 41 11 C41.66 11.33 42.32 11.66 43 12 C43 12.66 43 13.32 43 14 C43.66 14 44.32 14 45 14 C45.66 12.68 46.32 11.36 47 10 C49.31 10 51.62 10 54 10 C51.77810176 12.22189824 49.91517292 12.92598892 47 14 C47 14.66 47 15.32 47 16 C48.32 16.66 49.64 17.32 51 18 C33.55751034 17.14217264 15.86336995 11.10449198 1 2 C0.67 1.34 0.34 0.68 0 0 Z " fill="#2570F9" transform="translate(61,565)"/>
<path d="M0 0 C-0.66 0.66 -1.32 1.32 -2 2 C-4.76124378 1.81591708 -7.39504655 1.52892168 -10.125 1.125 C-23.23753021 -0.73835956 -37.6535382 -0.62108652 -49.0625 7.0625 C-52.70783756 9.46687158 -55.74369958 10.11938612 -60 11 C-60 11.66 -60 12.32 -60 13 C-61.6796875 14.32421875 -61.6796875 14.32421875 -63.875 15.6875 C-64.59429687 16.14511719 -65.31359375 16.60273438 -66.0546875 17.07421875 C-67.01761719 17.53248047 -67.01761719 17.53248047 -68 18 C-68.66 17.67 -69.32 17.34 -70 17 C-49.6933369 0.15299061 -25.81845407 -6.6771864 0 0 Z " fill="#11C5F8" transform="translate(259,423)"/>
<path d="M0 0 C2.09834868 2.09834868 2.49641057 3.05447758 3.34106445 5.81274414 C3.58504471 6.5985939 3.82902496 7.38444366 4.08039856 8.19410706 C4.46792549 9.47667641 4.46792549 9.47667641 4.86328125 10.78515625 C5.13714157 11.67424179 5.41100189 12.56332733 5.69316101 13.47935486 C6.57217605 16.33863086 7.44232238 19.20052364 8.3125 22.0625 C8.88681528 23.93311304 9.46167931 25.80355771 10.03710938 27.67382812 C11.43961722 32.23940255 12.82445035 36.81012215 14.2041626 41.38262939 C14.97974818 43.93339528 15.77193859 46.4784696 16.56787109 49.02294922 C17.03901845 50.55557756 17.50989983 52.08828771 17.98046875 53.62109375 C18.31211784 54.66016624 18.31211784 54.66016624 18.65046692 55.7202301 C19.68428268 59.13082235 20.37649705 61.6175201 19 65 C16.14688696 58.80180083 14.17786401 52.42373365 12.20703125 45.8984375 C11.68069344 44.16649643 11.68069344 44.16649643 11.14372253 42.39956665 C10.40630098 39.96785858 9.67101647 37.53550153 8.93774414 35.10253906 C7.81351874 31.37837471 6.67761473 27.65790389 5.54101562 23.9375 C4.82480671 21.57052847 4.10928811 19.20334792 3.39453125 16.8359375 C3.05396194 15.72439301 2.71339264 14.61284851 2.36250305 13.46762085 C2.0518541 12.42949249 1.74120514 11.39136414 1.42114258 10.32177734 C1.14595291 9.41245453 0.87076324 8.50313171 0.5872345 7.56625366 C-0.01018267 4.95550106 -0.10934947 2.6683074 0 0 Z " fill="#1452A3" transform="translate(552,494)"/>
<path d="M0 0 C9.08286639 -0.57065129 18.04883878 -0.35526925 25.20703125 5.94140625 C29.1427299 10.29392024 31.13024804 13.50144847 31.11352539 19.47143555 C31.11344986 20.37214279 31.11337433 21.27285004 31.11329651 22.20085144 C31.10813522 23.16968765 31.10297394 24.13852386 31.09765625 25.13671875 C31.0962413 26.13129593 31.09482635 27.12587311 31.09336853 28.15058899 C31.08776761 31.32958982 31.07521496 34.50852043 31.0625 37.6875 C31.05748512 39.84179586 31.05292219 41.99609282 31.04882812 44.15039062 C31.03779787 49.43362084 31.02053262 54.71679851 31 60 C27.04 60 23.08 60 19 60 C19 59.67 19 59.34 19 59 C22.63 59 26.26 59 30 59 C29.9061835 53.41296041 29.80002708 47.82633978 29.68261719 42.23974609 C29.64442308 40.34072222 29.60955375 38.44162836 29.578125 36.54248047 C29.53226613 33.80671237 29.47430663 31.07142208 29.4140625 28.3359375 C29.40251129 27.49195404 29.39096008 26.64797058 29.37905884 25.77841187 C29.21534832 19.18393993 28.09368706 13.36414167 24 8 C18.6896297 4.40089993 14.39870235 3.27123001 8.0625 2.75 C7.28326172 2.67265625 6.50402344 2.5953125 5.70117188 2.515625 C3.8021516 2.3292181 1.90121236 2.16253334 0 2 C0 1.34 0 0.68 0 0 Z " fill="#0F3D90" transform="translate(445,503)"/>
<path d="M0 0 C1.13824219 -0.00515625 2.27648437 -0.0103125 3.44921875 -0.015625 C6.3125 0.25 6.3125 0.25 8.3125 2.25 C6.91837891 2.30607422 6.91837891 2.30607422 5.49609375 2.36328125 C-4.10898869 2.58460923 -4.10898869 2.58460923 -12.6875 6.25 C-14.01298832 9.69336774 -14.01298832 9.69336774 -13.6875 13.25 C-12.08013567 15.5023908 -11.15164198 16.16132572 -8.41796875 16.68359375 C-4.20592413 16.69006386 -1.17813515 16.4551747 2.75 14.8125 C6.18392513 11.37857487 7.18103896 7.89494532 8.3125 3.25 C8.6425 3.25 8.9725 3.25 9.3125 3.25 C9.19680535 8.07762215 9.05769341 11.30340296 6 15.1875 C2.0190614 18.24263893 -0.6293435 19.53084242 -5.6875 19.5 C-6.9559375 19.50773438 -6.9559375 19.50773438 -8.25 19.515625 C-10.88951069 19.22798601 -12.46430732 18.68740906 -14.6875 17.25 C-17.18781654 13.49952518 -17.22353554 11.69143734 -16.6875 7.25 C-12.0486173 1.28572225 -7.34494863 -0.03350034 0 0 Z " fill="#12449B" transform="translate(453.6875,535.75)"/>
<path d="M0 0 C2.19782656 2.19782656 2.81466092 3.73105549 3.91015625 6.61328125 C4.26013672 7.53173828 4.61011719 8.45019531 4.97070312 9.39648438 C5.33099609 10.35876953 5.69128906 11.32105469 6.0625 12.3125 C6.42666016 13.26318359 6.79082031 14.21386719 7.16601562 15.19335938 C10.37222059 23.67409747 10.37222059 23.67409747 11 28 C10 29 10 29 7.59155273 29.11352539 C6.54942627 29.10828857 5.5072998 29.10305176 4.43359375 29.09765625 C3.30888672 29.09443359 2.18417969 29.09121094 1.02539062 29.08789062 C-0.15861328 29.07951172 -1.34261719 29.07113281 -2.5625 29.0625 C-3.75037109 29.05798828 -4.93824219 29.05347656 -6.16210938 29.04882812 C-9.10812226 29.03699675 -12.05403681 29.02051287 -15 29 C-15 26.69 -15 24.38 -15 22 C-14.34 22 -13.68 22 -13 22 C-12.87625 21.05125 -12.7525 20.1025 -12.625 19.125 C-12 16 -12 16 -10 14 C-10.5278693 18.48688907 -11.29491 21.73727501 -13 26 C-6.07 26 0.86 26 8 26 C7.13375 23.68742188 7.13375 23.68742188 6.25 21.328125 C5.49966073 19.30220896 4.74967933 17.27616034 4 15.25 C3.6184375 14.23421875 3.236875 13.2184375 2.84375 12.171875 C2.4828125 11.1921875 2.121875 10.2125 1.75 9.203125 C1.41484375 8.30239258 1.0796875 7.40166016 0.734375 6.47363281 C0 4 0 4 0 0 Z " fill="#0B82C8" transform="translate(903,506)"/>
<path d="M0 0 C2.890625 0.41796875 2.890625 0.41796875 6.015625 2.60546875 C10.38540163 9.1601337 11.02266968 15.57587185 10.98828125 23.34765625 C10.98505859 24.63671875 10.98183594 25.92578125 10.97851562 27.25390625 C10.97016233 28.60026111 10.96169741 29.94661527 10.953125 31.29296875 C10.9481033 32.66275879 10.94354157 34.0325506 10.93945312 35.40234375 C10.92769754 38.74093065 10.91126464 42.0794269 10.890625 45.41796875 C10.230625 45.41796875 9.570625 45.41796875 8.890625 45.41796875 C8.8812793 44.46019531 8.87193359 43.50242187 8.86230469 42.515625 C8.82214163 38.92939379 8.75631375 35.34399696 8.68310547 31.75830078 C8.65504713 30.21251218 8.63375794 28.66658414 8.61962891 27.12060547 C8.72953408 15.11360699 8.72953408 15.11360699 3.890625 4.41796875 C1.8646053 3.03210331 1.8646053 3.03210331 -0.421875 2.85546875 C-1.20046875 2.74332031 -1.9790625 2.63117187 -2.78125 2.515625 C-6.05585579 2.37826737 -8.90456552 2.73609439 -12.109375 3.41796875 C-8.85269224 -0.8044889 -4.96085598 -0.12581881 0 0 Z " fill="#09409D" transform="translate(521.109375,515.58203125)"/>
<path d="M0 0 C1.258125 -0.04125 2.51625 -0.0825 3.8125 -0.125 C4.52019531 -0.14820313 5.22789062 -0.17140625 5.95703125 -0.1953125 C8 0 8 0 11 2 C10.21496094 2.42410156 9.42992187 2.84820312 8.62109375 3.28515625 C-2.8588375 9.69419763 -10.59446133 16.63673401 -14.81640625 29.484375 C-15.27855016 31.30709642 -15.65135974 33.15220663 -16 35 C-16.33 35 -16.66 35 -17 35 C-16.8066989 22.99775917 -16.8066989 22.99775917 -13.625 19.0625 C-12.325625 18.0415625 -12.325625 18.0415625 -11 17 C-10.319375 15.5459375 -10.319375 15.5459375 -9.625 14.0625 C-7.52536353 10.1054928 -4.69445397 7.51044824 -1 5 C-0.34 5 0.32 5 1 5 C0.67 3.35 0.34 1.7 0 0 Z " fill="#0892F7" transform="translate(248,461)"/>
<path d="M0 0 C0.33 0 0.66 0 1 0 C1 14.19 1 28.38 1 43 C-3.95 43 -8.9 43 -14 43 C-16.10907427 38.78185146 -16.19094547 36.13267455 -15.9765625 31.609375 C-15.95153656 30.90476135 -15.92651062 30.20014771 -15.90072632 29.47418213 C-15.81880855 27.2322779 -15.72211305 24.99129233 -15.625 22.75 C-15.56673139 21.22659955 -15.50942874 19.70316183 -15.453125 18.1796875 C-15.31327353 14.45262781 -15.16016663 10.72624822 -15 7 C-14.67 7 -14.34 7 -14 7 C-14 17.89 -14 28.78 -14 40 C-7.07 40.495 -7.07 40.495 0 41 C0 27.47 0 13.94 0 0 Z " fill="#1E5FAD" transform="translate(544,521)"/>
<path d="M0 0 C0.66 1.32 1.32 2.64 2 4 C1.34 4.66 0.68 5.32 0 6 C-0.33 5.67 -0.66 5.34 -1 5 C-5.29 4.34 -9.58 3.68 -14 3 C-14 22.14 -14 41.28 -14 61 C-14.33 61 -14.66 61 -15 61 C-15.15385726 53.62005167 -15.30203816 46.24001242 -15.4429636 38.85980511 C-15.50857874 35.43292181 -15.57615212 32.00610041 -15.64819336 28.5793457 C-15.73092009 24.64024221 -15.80514293 20.70100071 -15.87890625 16.76171875 C-15.90594131 15.53039719 -15.93297638 14.29907562 -15.96083069 13.03044128 C-15.98092697 11.88948502 -16.00102325 10.74852875 -16.02172852 9.57299805 C-16.04171402 8.567061 -16.06169952 7.56112396 -16.08229065 6.52470398 C-16 4 -16 4 -15 1 C-12.87506859 0.97306425 -10.75004088 0.95363372 -8.625 0.9375 C-7.44164062 0.92589844 -6.25828125 0.91429687 -5.0390625 0.90234375 C-2 1 -2 1 0 2 C0 1.34 0 0.68 0 0 Z " fill="#0E77BA" transform="translate(962,483)"/>
<path d="M0 0 C0.66 0 1.32 0 2 0 C2.29769287 0.87325928 2.59538574 1.74651855 2.90209961 2.64624023 C4.00490624 5.87670347 5.11031797 9.10625018 6.2175293 12.33520508 C6.69677318 13.73458422 7.1749668 15.13432349 7.65209961 16.53442383 C8.33693985 18.54343077 9.02551057 20.5511247 9.71484375 22.55859375 C10.12855225 23.76829834 10.54226074 24.97800293 10.96850586 26.22436523 C11.73313712 28.87196983 11.73313712 28.87196983 13 30 C13.99 27.03 14.98 24.06 16 21 C16.66 21 17.32 21 18 21 C17.52372025 22.95903745 17.04388577 24.91721097 16.5625 26.875 C16.29566406 27.96554687 16.02882813 29.05609375 15.75390625 30.1796875 C15 33 15 33 14 35 C13.01 34.67 12.02 34.34 11 34 C9.89270562 31.45261784 8.97929221 29.00721297 8.125 26.375 C7.86960449 25.61823975 7.61420898 24.86147949 7.35107422 24.08178711 C6.82136317 22.5075777 6.29685781 20.93160785 5.77734375 19.35400391 C5.03277572 17.09925361 4.26994846 14.85166098 3.5 12.60546875 C0 2.32892468 0 2.32892468 0 0 Z " fill="#0D5BAD" transform="translate(737,514)"/>
<path d="M0 0 C0.495 1.485 0.495 1.485 1 3 C0.01 3 -0.98 3 -2 3 C-2.33 3.99 -2.66 4.98 -3 6 C-3 5.01 -3 4.02 -3 3 C-15.54 3 -28.08 3 -41 3 C-41.33 4.32 -41.66 5.64 -42 7 C-42 5.02 -42 3.04 -42 1 C-28.14 0.67 -14.28 0.34 0 0 Z " fill="#1777C0" transform="translate(836,536)"/>
<path d="M0 0 C0 0.33 0 0.66 0 1 C-4.74622972 1.16996243 -9.49266156 1.33022168 -14.23950195 1.48217773 C-15.84831165 1.53496505 -17.45704234 1.59022912 -19.06567383 1.64819336 C-28.80617947 1.99726103 -38.29037269 2.03335175 -48 1 C-47.67 0.34 -47.34 -0.32 -47 -1 C-32.40818931 -3.91836214 -14.58864935 -2.47692176 0 0 Z " fill="#3263F4" transform="translate(272,566)"/>
<path d="M0 0 C0.66 0 1.32 0 2 0 C0.50660362 5.3992023 -1.20394692 10.69347953 -3 16 C1.62 16 6.24 16 11 16 C11.268125 14.63875 11.53625 13.2775 11.8125 11.875 C12.68629925 7.89575591 13.9874351 4.56772868 16 1 C17.25077637 4.7523291 16.57185243 6.27239853 15.375 10 C15.05273438 11.051875 14.73046875 12.10375 14.3984375 13.1875 C12.6948899 16.61362926 11.5412112 17.59048837 8 19 C4.66796875 19.07421875 4.66796875 19.07421875 1.1875 18.6875 C0.02605469 18.56761719 -1.13539063 18.44773437 -2.33203125 18.32421875 C-3.21246094 18.21722656 -4.09289062 18.11023438 -5 18 C-6.39214652 13.82356045 -4.70664266 11.16562207 -3.0625 7.3125 C-2.77181641 6.61060547 -2.48113281 5.90871094 -2.18164062 5.18554688 C-1.46289687 3.45349225 -0.73254669 1.72626219 0 0 Z " fill="#167ABD" transform="translate(867,546)"/>
<path d="M0 0 C0.66 0.33 1.32 0.66 2 1 C-2.21780091 6.04947996 -6.69033508 10.82231358 -11.3125 15.5 C-11.84004883 16.04043945 -12.36759766 16.58087891 -12.91113281 17.13769531 C-14.23515758 18.46513471 -15.61366097 19.73777933 -17 21 C-17.66 21 -18.32 21 -19 21 C-19.24492187 21.56203125 -19.48984375 22.1240625 -19.7421875 22.703125 C-21.22926539 25.41865854 -23.04062782 27.46391438 -25.125 29.75 C-25.84945312 30.54921875 -26.57390625 31.3484375 -27.3203125 32.171875 C-27.87460938 32.77515625 -28.42890625 33.3784375 -29 34 C-29.66 33.67 -30.32 33.34 -31 33 C-24.2847006 25.01208887 -17.52553459 17.2462364 -10 10 C-9.0925 9.0925 -8.185 8.185 -7.25 7.25 C-4.83333333 4.83333333 -2.41666667 2.41666667 0 0 Z " fill="#0ABCFA" transform="translate(186,442)"/>
<path d="M0 0 C-3.97648637 2.04973524 -7.9776729 4.0417618 -12 6 C-12.78890625 6.39058594 -13.5778125 6.78117188 -14.390625 7.18359375 C-20.66849433 10.00424483 -27.06377747 10.99681769 -33.84423828 11.8737793 C-37.95862381 12.44774622 -40.26680032 12.84973665 -43 16 C-43.99 15.01 -44.98 14.02 -46 13 C-42.59855228 10.73236819 -39.68415125 10.3075032 -35.75 9.6875 C-24.92034315 7.81724879 -14.56441017 4.59278191 -4.734375 -0.3984375 C-3 -1 -3 -1 0 0 Z " fill="#1B98F3" transform="translate(91,540)"/>
<path d="M0 0 C0.33 0 0.66 0 1 0 C1.78028239 8.92989844 1.78028239 8.92989844 -1.1875 13 C-7.1858987 17.26552796 -12.16555962 17.25632187 -19.3125 17.125 C-20.24384766 17.11597656 -21.17519531 17.10695313 -22.13476562 17.09765625 C-24.42328823 17.07418422 -26.71167779 17.03831609 -29 17 C-29 14.03 -29 11.06 -29 8 C-28.34 8 -27.68 8 -27 8 C-27 10.31 -27 12.62 -27 15 C-23.93616098 14.91280537 -20.87515949 14.80589603 -17.8125 14.6875 C-16.94818359 14.66494141 -16.08386719 14.64238281 -15.19335938 14.61914062 C-8.56330975 14.37213422 -8.56330975 14.37213422 -3 11 C-1.76283886 8.30780956 -1.76283886 8.30780956 -1.1875 5.3125 C-0.95417969 4.31863281 -0.72085937 3.32476563 -0.48046875 2.30078125 C-0.32191406 1.54152344 -0.16335938 0.78226563 0 0 Z " fill="#15378E" transform="translate(359,535)"/>
<path d="M0 0 C2.60577305 2.27731426 3.6524187 4.21402762 4.6875 7.5 C4.93886719 8.2734375 5.19023438 9.046875 5.44921875 9.84375 C6 12 6 12 6 15 C10.62 15 15.24 15 20 15 C18.9790625 12.3703125 18.9790625 12.3703125 17.9375 9.6875 C15.875 4.375 15.875 4.375 17 1 C19.86034565 6.33931188 21.73130765 11.07943568 23 17 C21.20841511 17.02696365 19.41671527 17.04637917 17.625 17.0625 C16.62726562 17.07410156 15.62953125 17.08570313 14.6015625 17.09765625 C12 17 12 17 10 16 C9.67 16.66 9.34 17.32 9 18 C7.171875 17.89453125 7.171875 17.89453125 5 17 C3.515625 14.19921875 3.515625 14.19921875 2.25 10.6875 C1.82203125 9.53636719 1.3940625 8.38523437 0.953125 7.19921875 C0 4 0 4 0 0 Z " fill="#1679BA" transform="translate(918,547)"/>
<path d="M0 0 C1.47906892 -0.02689216 2.95827483 -0.04634621 4.4375 -0.0625 C5.26121094 -0.07410156 6.08492188 -0.08570313 6.93359375 -0.09765625 C9 0 9 0 10 1 C10.07319621 3.69654854 10.09242537 6.36691458 10.0625 9.0625 C10.05798828 9.82111328 10.05347656 10.57972656 10.04882812 11.36132812 C10.0370068 13.24091871 10.01907078 15.12046899 10 17 C5.71 16.67 1.42 16.34 -3 16 C0.00617269 12.99382731 2.82381598 13.40414684 7 13 C7 9.37 7 5.74 7 2 C4.69 2 2.38 2 0 2 C0 1.34 0 0.68 0 0 Z " fill="#194BA1" transform="translate(411,503)"/>
<path d="M0 0 C-1.15058556 5.39795989 -2.42421759 10.70987333 -4 16 C-4.66 16 -5.32 16 -6 16 C-5.343621 11.51474352 -4.29925791 7.33085971 -3 3 C-7.62 3 -12.24 3 -17 3 C-17 2.01 -17 1.02 -17 0 C-11.06390334 -0.89316269 -5.93024803 -0.97040422 0 0 Z " fill="#1760AE" transform="translate(666,484)"/>
<path d="M0 0 C9.06118522 -0.69404823 15.7335217 1.18251433 23.3125 6.1875 C27.59964355 10.67404558 30.76235118 15.29080346 31.3125 21.5625 C31.209375 22.366875 31.10625 23.17125 31 24 C29.32096993 21.4814549 28.34154416 19.45944768 27.25 16.6875 C24.65398741 10.81783919 21.34270033 6.77515429 15.375 4.1875 C10.08700875 2.43855348 4.52656116 2.26711712 -1 2 C-0.67 1.34 -0.34 0.68 0 0 Z " fill="#1673BE" transform="translate(805,503)"/>
<path d="M0 0 C3.4375 0.3125 3.4375 0.3125 5.375 1.8125 C6.91434003 5.43447655 6.63351854 8.39212923 6.4375 12.3125 C6.1075 12.3125 5.7775 12.3125 5.4375 12.3125 C4.9734375 10.6109375 4.9734375 10.6109375 4.5 8.875 C3.80825469 5.52474901 3.80825469 5.52474901 2.4375 4.3125 C-1.64244744 3.81672949 -5.33639532 3.37489054 -8.6875 5.9375 C-9.92157902 9.28714305 -9.84303229 10.96888792 -8.5625 14.3125 C-6.27522452 15.78094178 -4.18153334 16.45536182 -1.5625 17.3125 C-1.5625 17.6425 -1.5625 17.9725 -1.5625 18.3125 C-4.3125 18.625 -4.3125 18.625 -7.5625 18.3125 C-10.6965025 15.59086625 -11.47470969 13.92703214 -12.0625 9.8125 C-11.48032375 5.73726623 -10.53504 4.11989889 -7.5625 1.3125 C-5.0493057 0.18589566 -2.77283527 0.24323116 0 0 Z " fill="#137CC6" transform="translate(852.5625,545.6875)"/>
<path d="M0 0 C13.00404165 0.1190604 13.00404165 0.1190604 17.9375 4.3125 C18.4325 4.93125 18.9275 5.55 19.4375 6.1875 C18.4475 7.6725 18.4475 7.6725 17.4375 9.1875 C17.045625 8.383125 16.65375 7.57875 16.25 6.75 C14.71523613 4.01945035 14.71523613 4.01945035 12.20703125 3.52734375 C9.20390368 3.15883585 6.33690042 3.12686039 3.3125 3.1875 C-0.0688602 3.25495856 -2.3384903 3.2621699 -5.5625 2.1875 C-5.8925 8.7875 -6.2225 15.3875 -6.5625 22.1875 C-6.8925 22.1875 -7.2225 22.1875 -7.5625 22.1875 C-7.59137814 18.70835059 -7.60925687 15.22923169 -7.625 11.75 C-7.63337891 10.75677734 -7.64175781 9.76355469 -7.65039062 8.74023438 C-7.65361328 7.79599609 -7.65683594 6.85175781 -7.66015625 5.87890625 C-7.66539307 5.00435791 -7.67062988 4.12980957 -7.67602539 3.22875977 C-7.42650675 -1.25774641 -3.69498525 0.01959165 0 0 Z " fill="#103080" transform="translate(337.5625,495.8125)"/>
<path d="M0 0 C5.0148262 1.71936898 8.67606442 3.55112528 11.2734375 8.35546875 C13.71089002 14.1546427 14.52959081 18.63755492 12.91796875 24.76171875 C11.5102562 28.19414127 9.61480634 30.38519366 7 33 C6.01 32.67 5.02 32.34 4 32 C4.78375 31.29875 5.5675 30.5975 6.375 29.875 C9.52177559 26.42853149 11.00559622 23.79251282 10.99609375 19.05078125 C10.52303171 13.76657756 8.97667499 9.40638694 5.5625 5.25 C3.81159196 3.84927357 2.04207983 2.9154151 0 2 C0 1.34 0 0.68 0 0 Z " fill="#154094" transform="translate(359,487)"/>
<path d="M0 0 C0.98484375 0.01804687 1.9696875 0.03609375 2.984375 0.0546875 C4.10585938 0.08949219 4.10585938 0.08949219 5.25 0.125 C5.25 0.455 5.25 0.785 5.25 1.125 C4.51394531 1.21136719 3.77789063 1.29773438 3.01953125 1.38671875 C-3.34615935 2.28968897 -3.34615935 2.28968897 -8.8125 5.5 C-10.94945184 8.23833505 -10.94945184 8.23833505 -12.75 12.125 C0.12 12.62 0.12 12.62 13.25 13.125 C13.58 12.135 13.91 11.145 14.25 10.125 C14.25 11.445 14.25 12.765 14.25 14.125 C4.68 14.125 -4.89 14.125 -14.75 14.125 C-13.8104519 8.48771138 -13.16391148 6.41677443 -9.75 2.125 C-6.48579218 -0.01287677 -3.84981337 -0.09166222 0 0 Z " fill="#0B60AF" transform="translate(808.75,514.875)"/>
<path d="M0 0 C4.56898493 1.79495837 7.03843609 4.94637423 9.09375 9.3359375 C10.86506244 14.54298528 10.97451408 20.2967827 9.1015625 25.4921875 C8.15659602 27.37541858 7.08905202 29.1962576 6 31 C5.34 31 4.68 31 4 31 C4.309375 30.236875 4.61875 29.47375 4.9375 28.6875 C7.31340998 22.67784534 8.46058986 16.13959925 6.24609375 9.86328125 C4.3407547 6.41872712 1.92491467 3.61153095 -1 1 C-0.67 0.67 -0.34 0.34 0 0 Z " fill="#173D94" transform="translate(365,524)"/>
<path d="M0 0 C1.58206057 0.00667536 3.16410534 0.0186375 4.74609375 0.03515625 C5.55240234 0.03966797 6.35871094 0.04417969 7.18945312 0.04882812 C9.18753131 0.06065107 11.18557158 0.07858711 13.18359375 0.09765625 C13.51359375 2.40765625 13.84359375 4.71765625 14.18359375 7.09765625 C13.52359375 6.10765625 12.86359375 5.11765625 12.18359375 4.09765625 C9.05801416 3.73235393 9.05801416 3.73235393 5.55859375 3.91015625 C4.37007812 3.93722656 3.1815625 3.96429688 1.95703125 3.9921875 C1.04179688 4.02699219 0.1265625 4.06179688 -0.81640625 4.09765625 C-0.81640625 5.74765625 -0.81640625 7.39765625 -0.81640625 9.09765625 C-1.47640625 8.76765625 -2.13640625 8.43765625 -2.81640625 8.09765625 C-3.54716273 5.78359405 -4.21778883 3.44936756 -4.81640625 1.09765625 C-3.81640625 0.09765625 -3.81640625 0.09765625 0 0 Z " fill="#185AA8" transform="translate(552.81640625,483.90234375)"/>
<path d="M0 0 C0.86818359 -0.020625 1.73636719 -0.04125 2.63085938 -0.0625 C3.47068359 -0.06765625 4.31050781 -0.0728125 5.17578125 -0.078125 C5.94446533 -0.0874707 6.71314941 -0.09681641 7.50512695 -0.10644531 C9.6875 0.25 9.6875 0.25 13.6875 3.25 C6.4275 3.25 -0.8325 3.25 -8.3125 3.25 C-8.6425 6.88 -8.9725 10.51 -9.3125 14.25 C-9.6425 14.25 -9.9725 14.25 -10.3125 14.25 C-10.33935938 12.10423363 -10.35883088 9.95837355 -10.375 7.8125 C-10.38660156 6.61753906 -10.39820313 5.42257812 -10.41015625 4.19140625 C-10.21127611 -1.79886369 -4.84795005 0.02841289 0 0 Z " fill="#123287" transform="translate(340.3125,526.75)"/>
<path d="M0 0 C0.33 0 0.66 0 1 0 C0.88590407 1.45922693 0.75834456 2.91740598 0.625 4.375 C0.55539062 5.18710937 0.48578125 5.99921875 0.4140625 6.8359375 C0 9 0 9 -2 11 C-4.74485593 11.14507695 -7.38480543 11.18652423 -10.125 11.125 C-10.87910156 11.11597656 -11.63320313 11.10695313 -12.41015625 11.09765625 C-14.27357254 11.0740687 -16.13682593 11.03819719 -18 11 C-18.33 9.68 -18.66 8.36 -19 7 C-13.72 7.33 -8.44 7.66 -3 8 C-2.01 5.36 -1.02 2.72 0 0 Z " fill="#1352A5" transform="translate(591,553)"/>
<path d="M0 0 C0.33 0.66 0.66 1.32 1 2 C1.75925781 1.98839844 2.51851563 1.97679687 3.30078125 1.96484375 C4.29464844 1.95582031 5.28851563 1.94679688 6.3125 1.9375 C7.29863281 1.92589844 8.28476562 1.91429687 9.30078125 1.90234375 C12 2 12 2 15 3 C16.33363703 3.14403348 17.67218046 3.24590423 19.01171875 3.31640625 C20.14770508 3.37924805 20.14770508 3.37924805 21.30664062 3.44335938 C22.48516602 3.50233398 22.48516602 3.50233398 23.6875 3.5625 C24.88342773 3.62727539 24.88342773 3.62727539 26.10351562 3.69335938 C28.06881447 3.79927368 30.03438496 3.90012551 32 4 C32 4.33 32 4.66 32 5 C31.30438965 4.99476318 30.6087793 4.98952637 29.89208984 4.98413086 C26.71973587 4.96325663 23.54739639 4.95030668 20.375 4.9375 C19.28058594 4.92912109 18.18617188 4.92074219 17.05859375 4.91210938 C15.99511719 4.90888672 14.93164062 4.90566406 13.8359375 4.90234375 C12.86188965 4.89710693 11.8878418 4.89187012 10.88427734 4.88647461 C7.92331208 4.93481079 7.92331208 4.93481079 4.75244141 5.59594727 C3.84413574 5.72928467 2.93583008 5.86262207 2 6 C0.125 4.5625 0.125 4.5625 -1 3 C-0.67 2.01 -0.34 1.02 0 0 Z " fill="#234B9F" transform="translate(316,559)"/>
<path d="M0 0 C0 0.33 0 0.66 0 1 C-1.39412109 1.05607422 -1.39412109 1.05607422 -2.81640625 1.11328125 C-12.37810382 1.41200296 -12.37810382 1.41200296 -21 5 C-22.29208311 8.2732772 -22.09993087 11.5024194 -22 15 C-22.66 14.67 -23.32 14.34 -24 14 C-24.62068966 5.93103448 -24.62068966 5.93103448 -22.375 2.5625 C-15.58947774 -1.90165938 -7.71634651 -1.99131523 0 0 Z " fill="#0F58AD" transform="translate(701,537)"/>
<path d="M0 0 C5 5 5 5 7.1875 7.5625 C14.04810372 13.50835655 22.17405282 14.66441265 31 15 C31 15.33 31 15.66 31 16 C21.18523496 16.70666308 13.80296433 16.6550422 6 10 C3.73109726 7.83609678 1.61001736 5.70299662 0 3 C0 2.01 0 1.02 0 0 Z " fill="#0E60AD" transform="translate(783,549)"/>
<path d="M0 0 C1.55074219 -0.03867187 1.55074219 -0.03867187 3.1328125 -0.078125 C5.875 0.25 5.875 0.25 7.7421875 1.765625 C8.30292969 2.50039063 8.30292969 2.50039063 8.875 3.25 C7.98039063 3.22679687 7.08578125 3.20359375 6.1640625 3.1796875 C-0.49195271 3.08034399 -6.58129434 3.22408368 -13.0390625 4.91015625 C-15.37095449 5.29007124 -16.895261 4.97138615 -19.125 4.25 C-17.908125 3.775625 -16.69125 3.30125 -15.4375 2.8125 C-14.75300781 2.54566406 -14.06851563 2.27882813 -13.36328125 2.00390625 C-8.91206348 0.50463046 -4.6861459 0.07046836 0 0 Z " fill="#1564B8" transform="translate(691.125,526.75)"/>
<path d="M0 0 C0.66 0 1.32 0 2 0 C2 0.66 2 1.32 2 2 C-9.53699776 8.62309131 -21.18021902 6.9077187 -34 6 C-34 5.67 -34 5.34 -34 5 C-33.35562988 4.98541748 -32.71125977 4.97083496 -32.04736328 4.95581055 C-29.07269801 4.88044526 -26.09904905 4.7840837 -23.125 4.6875 C-22.11179687 4.66494141 -21.09859375 4.64238281 -20.0546875 4.61914062 C-9.32401476 4.46360465 -9.32401476 4.46360465 0 0 Z " fill="#122B77" transform="translate(365,557)"/>
<path d="M0 0 C0.33 0 0.66 0 1 0 C0.67382624 6.08857681 -0.59898728 11.57139599 -2.375 17.375 C-2.58406982 18.07689453 -2.79313965 18.77878906 -3.00854492 19.50195312 C-4.11771548 23.00593338 -5.02252143 25.71900765 -8 28 C-6.71937256 20.3836368 -4.54610919 13.28028096 -2 6 C-1.33054458 4.00093174 -0.66311322 2.00118098 0 0 Z " fill="#0E53A9" transform="translate(605,508)"/>
<path d="M0 0 C2.8203125 -0.29296875 2.8203125 -0.29296875 6.125 -0.1875 C7.76855469 -0.14689453 7.76855469 -0.14689453 9.4453125 -0.10546875 C10.28835938 -0.07066406 11.13140625 -0.03585937 12 0 C12 0.33 12 0.66 12 1 C11.34773437 1.01417969 10.69546875 1.02835938 10.0234375 1.04296875 C3.5158493 1.39810262 1.01991093 2.72773538 -4 7 C-8.50341705 8.18719254 -12.5290777 8.31497715 -17 7 C-17 6.34 -17 5.68 -17 5 C-16.00419922 5.03480469 -16.00419922 5.03480469 -14.98828125 5.0703125 C-8.230229 5.31657484 -8.230229 5.31657484 -2 3 C-1.34 2.01 -0.68 1.02 0 0 Z " fill="#0E6FBE" transform="translate(820,547)"/>
<path d="M0 0 C2.046875 3.71875 2.046875 3.71875 1.625 6.25 C1.41875 6.8275 1.2125 7.405 1 8 C0.67 6.35 0.34 4.7 0 3 C-4.62 3 -9.24 3 -14 3 C-14.33 3.99 -14.66 4.98 -15 6 C-15 4.35 -15 2.7 -15 1 C-10.03926578 -0.32286246 -5.08888488 -0.08893197 0 0 Z " fill="#1154A5" transform="translate(614,484)"/>
<path d="M0 0 C4.08666352 0.74302973 8.05018922 1.70871571 12 3 C12.33 3.66 12.66 4.32 13 5 C15.34038186 6.13102526 15.34038186 6.13102526 18.0625 7.125 C18.98160156 7.47820313 19.90070313 7.83140625 20.84765625 8.1953125 C21.55792969 8.46085938 22.26820312 8.72640625 23 9 C23 9.33 23 9.66 23 10 C16.99462248 10.69071435 13.17946402 8.35277376 8.125 5.5 C6.949375 4.85611328 6.949375 4.85611328 5.75 4.19921875 C3.8268703 3.14384269 1.91086748 2.07737013 0 1 C0 0.67 0 0.34 0 0 Z " fill="#1B87F5" transform="translate(61,565)"/>
<path d="M0 0 C0.33 1.32 0.66 2.64 1 4 C1.495 3.835 1.99 3.67 2.5 3.5 C6.03444089 2.79311182 9.39690701 2.93994845 13 3 C13.33 2.34 13.66 1.68 14 1 C13.50168276 4.68754757 12.89932357 6.60490662 10 9 C8.68 8.34 7.36 7.68 6 7 C6 6.67 6 6.34 6 6 C3.69 5.67 1.38 5.34 -1 5 C-0.67 3.35 -0.34 1.7 0 0 Z " fill="#1869BB" transform="translate(665,519)"/>
<path d="M0 0 C0.66 1.32 1.32 2.64 2 4 C1.34 4.66 0.68 5.32 0 6 C-0.33 5.67 -0.66 5.34 -1 5 C-3.18019479 4.60333773 -5.3696463 4.25684763 -7.5625 3.9375 C-9.35880859 3.67259766 -9.35880859 3.67259766 -11.19140625 3.40234375 C-12.11824219 3.26957031 -13.04507813 3.13679688 -14 3 C-14 3.66 -14 4.32 -14 5 C-14.66 4.67 -15.32 4.34 -16 4 C-15.67 3.01 -15.34 2.02 -15 1 C-12.87506859 0.97306425 -10.75004088 0.95363372 -8.625 0.9375 C-7.44164062 0.92589844 -6.25828125 0.91429687 -5.0390625 0.90234375 C-2 1 -2 1 0 2 C0 1.34 0 0.68 0 0 Z " fill="#1388C8" transform="translate(962,483)"/>
<path d="M0 0 C5.28 0.33 10.56 0.66 16 1 C16 1.33 16 1.66 16 2 C12.57426063 2.77528479 9.42760755 3.11918778 5.91796875 3.09765625 C4.98662109 3.09443359 4.05527344 3.09121094 3.09570312 3.08789062 C2.13599609 3.07951172 1.17628906 3.07113281 0.1875 3.0625 C-1.28106445 3.05573242 -1.28106445 3.05573242 -2.77929688 3.04882812 C-5.18626111 3.03708684 -7.59309857 3.02066419 -10 3 C-10 2.67 -10 2.34 -10 2 C-6.7 2 -3.4 2 0 2 C0 1.34 0 0.68 0 0 Z " fill="#326EF5" transform="translate(128,581)"/>
<path d="M0 0 C5.61 0 11.22 0 17 0 C15.14285714 9.71428571 15.14285714 9.71428571 12 13 C12.165 11.9275 12.33 10.855 12.5 9.75 C13.08810915 5.96971248 13.08810915 5.96971248 13 2 C9.04 1.67 5.08 1.34 1 1 C0.67 1.66 0.34 2.32 0 3 C0 2.01 0 1.02 0 0 Z " fill="#1972BC" transform="translate(763,504)"/>
<path d="M0 0 C0.671875 1.7109375 0.671875 1.7109375 1 4 C-0.109375 6.2265625 -0.109375 6.2265625 -1.75 8.625 C-4.90938665 13.56246006 -6.62439155 18.32863181 -8 24 C-8.33 24 -8.66 24 -9 24 C-8.8066989 11.99775917 -8.8066989 11.99775917 -5.625 8.0625 C-4.75875 7.381875 -3.8925 6.70125 -3 6 C-1.20679176 2.83354526 -1.20679176 2.83354526 0 0 Z " fill="#1082F4" transform="translate(240,472)"/>
<path d="M0 0 C0.66 0 1.32 0 2 0 C1.52372025 1.95903745 1.04388577 3.91721097 0.5625 5.875 C0.29566406 6.96554687 0.02882813 8.05609375 -0.24609375 9.1796875 C-1 12 -1 12 -2 14 C-2.99 13.67 -3.98 13.34 -5 13 C-6.1875 9.9375 -6.1875 9.9375 -7 7 C-6.34 6.34 -5.68 5.68 -5 5 C-4.34 6.32 -3.68 7.64 -3 9 C-2.01 6.03 -1.02 3.06 0 0 Z " fill="#0E64B9" transform="translate(753,535)"/>
<path d="M0 0 C2.8984375 0.41796875 2.8984375 0.41796875 6.1484375 2.60546875 C8.00363375 5.58703415 8.38895229 6.9843652 7.8984375 10.41796875 C7.2384375 9.42796875 6.5784375 8.43796875 5.8984375 7.41796875 C3.55203646 4.46324151 2.30113701 3.5167441 -1.4140625 2.60546875 C-5.14344259 2.41583925 -8.43580329 2.74466604 -12.1015625 3.41796875 C-8.84645895 -0.80244137 -4.95872561 -0.1260693 0 0 Z " fill="#104AA0" transform="translate(521.1015625,515.58203125)"/>
<path d="M0 0 C0 0.99 0 1.98 0 3 C-7.14543527 8.751204 -14.19485498 9.31889861 -23 9 C-23 8.67 -23 8.34 -23 8 C-20.03 8 -17.06 8 -14 8 C-14 7.34 -14 6.68 -14 6 C-13.32453125 5.81824219 -12.6490625 5.63648438 -11.953125 5.44921875 C-11.06109375 5.19785156 -10.1690625 4.94648437 -9.25 4.6875 C-8.36828125 4.44386719 -7.4865625 4.20023438 -6.578125 3.94921875 C-3.94227495 2.97874669 -2.14592674 1.78994356 0 0 Z " fill="#1876C0" transform="translate(828,557)"/>
<path d="M0 0 C-14.60431655 7.41007194 -14.60431655 7.41007194 -19 9 C-19.99 8.67 -20.98 8.34 -22 8 C-18.10943507 5.54435826 -14.08826098 3.57722476 -9.875 1.75 C-9.25496094 1.46898437 -8.63492188 1.18796875 -7.99609375 0.8984375 C-3.35416667 -1.11805556 -3.35416667 -1.11805556 0 0 Z " fill="#1298F7" transform="translate(91,540)"/>
<path d="M0 0 C0.598125 0.19722656 1.19625 0.39445312 1.8125 0.59765625 C1.01585937 1.03464844 1.01585937 1.03464844 0.203125 1.48046875 C-5.25043629 4.64512658 -8.96288815 7.71971872 -10.9375 13.97265625 C-11.02 14.50890625 -11.1025 15.04515625 -11.1875 15.59765625 C-10.1975 15.92765625 -9.2075 16.25765625 -8.1875 16.59765625 C-9.5075 16.59765625 -10.8275 16.59765625 -12.1875 16.59765625 C-12.64513495 10.87721942 -11.90403644 7.99881782 -8.1875 3.59765625 C-3.0656362 -0.56385809 -3.0656362 -0.56385809 0 0 Z " fill="#1055A9" transform="translate(678.1875,506.40234375)"/>
<path d="M0 0 C0 3 0 3 -1 5 C-1.66 5 -2.32 5 -3 5 C-3.24492187 5.56203125 -3.48984375 6.1240625 -3.7421875 6.703125 C-5.22926539 9.41865854 -7.04062782 11.46391438 -9.125 13.75 C-10.21167969 14.94882812 -10.21167969 14.94882812 -11.3203125 16.171875 C-11.87460938 16.77515625 -12.42890625 17.3784375 -13 18 C-13.66 17.67 -14.32 17.34 -15 17 C-13.06402271 14.72785301 -11.12628828 12.45724637 -9.1875 10.1875 C-8.64029297 9.54490234 -8.09308594 8.90230469 -7.52929688 8.24023438 C-6.73168945 7.30727539 -6.73168945 7.30727539 -5.91796875 6.35546875 C-5.43094482 5.78465576 -4.9439209 5.21384277 -4.44213867 4.62573242 C-3.01735855 3.01956841 -1.53368638 1.50185891 0 0 Z " fill="#11B3F7" transform="translate(170,458)"/>
<path d="M0 0 C4.88346661 0.45427596 7.47824579 1.57342833 11 5 C13.56835136 8.45398977 14.36831825 10.70295375 14 15 C12 13 12 13 10.375 9.6875 C8.23751497 5.77965523 5.44826176 4.06090338 1.609375 1.9453125 C1.07828125 1.63335937 0.5471875 1.32140625 0 1 C0 0.67 0 0.34 0 0 Z " fill="#0F4CA2" transform="translate(529,505)"/>
<path d="M0 0 C0.226875 0.53625 0.45375 1.0725 0.6875 1.625 C4.15464151 7.89887512 7.362695 10.65742176 14 13 C14 13.33 14 13.66 14 14 C7.84576594 13.63074596 5.27296499 12.17122773 1 8 C-0.35439668 5.29120665 -0.06501451 2.99066732 0 0 Z " fill="#143D8E" transform="translate(425,550)"/>
<path d="M0 0 C0.66 0.33 1.32 0.66 2 1 C-2.74211953 4.26679345 -5.90265996 6.14633826 -11.6875 6.0625 C-12.89986328 6.04896484 -12.89986328 6.04896484 -14.13671875 6.03515625 C-15.05904297 6.01775391 -15.05904297 6.01775391 -16 6 C-16 5.34 -16 4.68 -16 4 C-15.18015625 3.87882813 -14.3603125 3.75765625 -13.515625 3.6328125 C-12.43796875 3.46523438 -11.3603125 3.29765625 -10.25 3.125 C-9.18265625 2.96257813 -8.1153125 2.80015625 -7.015625 2.6328125 C-4.0461587 2.1429644 -4.0461587 2.1429644 -1.734375 0.8671875 C-1.16203125 0.58101562 -0.5896875 0.29484375 0 0 Z " fill="#174596" transform="translate(456,560)"/>
<path d="M0 0 C-2.74951693 0.22212255 -5.49865612 0.42815588 -8.25 0.625 C-9.02730469 0.68945312 -9.80460937 0.75390625 -10.60546875 0.8203125 C-17.72431144 1.30707097 -17.72431144 1.30707097 -21 -1 C-14.44297782 -2.45711604 -5.74984993 -3.83323329 0 0 Z " fill="#205AAF" transform="translate(461,529)"/>
<path d="M0 0 C0.33 0 0.66 0 1 0 C0.6083965 5.95507399 -0.37124595 10.62819824 -3 16 C-4.09404518 12.66355017 -3.89669485 10.2934212 -3.1875 6.875 C-3.01605469 6.00617187 -2.84460938 5.13734375 -2.66796875 4.2421875 C-2 2 -2 2 0 0 Z " fill="#0D54AA" transform="translate(652,524)"/>
<path d="M0 0 C2 3 2 3 1.3203125 6.79296875 C0.93495648 8.26130808 0.53597227 9.72612344 0.125 11.1875 C-0.07480469 11.93708984 -0.27460937 12.68667969 -0.48046875 13.45898438 C-0.97541036 15.30912325 -1.48620476 17.155008 -2 19 C-2.33 19 -2.66 19 -3 19 C-3.45510807 12.32508169 -1.7672426 6.40625443 0 0 Z " fill="#1257A7" transform="translate(647,488)"/>
<path d="M0 0 C-2.30036525 1.76951173 -4.55823596 3.33038455 -7.0625 4.8125 C-10.33715819 7.25107525 -11.47164802 9.26402849 -13 13 C-13.33 13 -13.66 13 -14 13 C-14.26171875 10.76953125 -14.26171875 10.76953125 -14 8 C-12.20703125 5.76171875 -12.20703125 5.76171875 -9.8125 3.6875 C-9.03519531 2.99011719 -8.25789063 2.29273438 -7.45703125 1.57421875 C-4.6829 -0.20316582 -3.22864431 -0.33834816 0 0 Z " fill="#113D93" transform="translate(439,530)"/>
<path d="M0 0 C0.99 0.33 1.98 0.66 3 1 C2.52949219 1.36351562 2.05898438 1.72703125 1.57421875 2.1015625 C-2.47192944 5.36863868 -5.00283426 8.06582581 -7 13 C-7.33 13 -7.66 13 -8 13 C-8.51161216 10.18613309 -8.35700062 8.52338053 -6.734375 6.14453125 C-2.63306452 1.31653226 -2.63306452 1.31653226 0 0 Z " fill="#134499" transform="translate(435,507)"/>
<path d="M0 0 C4.53099675 0.54371961 7.83672603 1.71302455 11.8125 3.9375 C12.76769531 4.46214844 13.72289062 4.98679687 14.70703125 5.52734375 C17 7 17 7 18 9 C15.03 8.01 12.06 7.02 9 6 C9 5.34 9 4.68 9 4 C8.443125 3.87625 7.88625 3.7525 7.3125 3.625 C4.77885636 2.94023145 2.42078968 2.00866237 0 1 C0 0.67 0 0.34 0 0 Z " fill="#14C5F9" transform="translate(259,424)"/>
<path d="M0 0 C0.66 0.66 1.32 1.32 2 2 C0.73080317 6.96140578 -0.87886913 9.88625668 -5 13 C-8.8125 13.3125 -8.8125 13.3125 -12 13 C-11.443125 12.731875 -10.88625 12.46375 -10.3125 12.1875 C-5.37424914 9.93288201 -5.37424914 9.93288201 -2 6 C-1.34 6 -0.68 6 0 6 C0 4.02 0 2.04 0 0 Z " fill="#1B86CD" transform="translate(859,552)"/>
<path d="M0 0 C0.66 0 1.32 0 2 0 C1.649375 0.70125 1.29875 1.4025 0.9375 2.125 C-0.22294079 5.68368508 -0.30170529 7.47773863 1 11 C3.28717548 12.46641873 5.3823879 13.14332695 8 14 C8 14.33 8 14.66 8 15 C5.25 15.3125 5.25 15.3125 2 15 C-1.2146432 12.20833617 -1.93543113 10.62416577 -2.375 6.375 C-2 3 -2 3 0 0 Z " fill="#0F67B2" transform="translate(843,549)"/>
<path d="M0 0 C0.66 0 1.32 0 2 0 C1.06600348 3.73598609 0.06145556 4.95359478 -3.0625 7.3125 C-7.29043351 9.53350305 -11.33432258 9.38087163 -16 9 C-16 8.67 -16 8.34 -16 8 C-14.824375 7.938125 -13.64875 7.87625 -12.4375 7.8125 C-7.48471865 7.21323108 -4.79022023 5.17140876 -1 2 C-0.67 1.34 -0.34 0.68 0 0 Z " fill="#0E55AB" transform="translate(699,546)"/>
<path d="M0 0 C2 1 2 1 2.88671875 3.36328125 C3.15097656 4.33652344 3.41523437 5.30976562 3.6875 6.3125 C3.95949219 7.27800781 4.23148438 8.24351562 4.51171875 9.23828125 C4.99152353 11.95205711 4.90721887 13.43665005 4 16 C1.37124595 10.62819824 0.3916035 5.95507399 0 0 Z " fill="#11499C" transform="translate(567,543)"/>
<path d="M0 0 C2.43731979 3.65597969 3.59236003 7.36346525 5 11.50390625 C5.85841486 14.12069709 5.85841486 14.12069709 8 16 C6.35 15.67 4.7 15.34 3 15 C1.094753 9.89665983 -0.42589023 5.53657294 0 0 Z " fill="#1563B1" transform="translate(736,548)"/>
<path d="M0 0 C5.27315333 0.4452885 10.01770224 1.08373163 15 3 C15 3.66 15 4.32 15 5 C9.88634986 3.9318153 4.92772031 2.76892524 0 1 C0 0.67 0 0.34 0 0 Z " fill="#267EF3" transform="translate(81,575)"/>
<path d="M0 0 C3.05906926 2.51066469 3.75191278 4.90059933 4.6875 8.6875 C5.06455078 10.17830078 5.06455078 10.17830078 5.44921875 11.69921875 C5.63097656 12.45847656 5.81273437 13.21773437 6 14 C5.01 14.495 5.01 14.495 4 15 C3.32532438 13.25307205 2.66055844 11.50231475 2 9.75 C1.62875 8.77546875 1.2575 7.8009375 0.875 6.796875 C0 4 0 4 0 0 Z " fill="#0D7EC4" transform="translate(918,547)"/>
<path d="M0 0 C4.29 0 8.58 0 13 0 C12.67 0.99 12.34 1.98 12 3 C11.01 2.67 10.02 2.34 9 2 C8.67 2.66 8.34 3.32 8 4 C6.68 3.67 5.36 3.34 4 3 C4 2.34 4 1.68 4 1 C2.68 0.67 1.36 0.34 0 0 Z " fill="#15398B" transform="translate(386,561)"/>
<path d="M0 0 C2.57553142 3.86329714 4.92177718 7.84355437 7 12 C5.14453125 11.7421875 5.14453125 11.7421875 3 11 C1.69921875 9.2578125 1.69921875 9.2578125 0.6875 7.125 C0.34074219 6.42632813 -0.00601563 5.72765625 -0.36328125 5.0078125 C-1 3 -1 3 0 0 Z " fill="#0E6EBE" transform="translate(795,540)"/>
<path d="M0 0 C3.84938867 3.59276276 5.91873633 5.88714467 6.125 11.25 C6.08375 12.1575 6.0425 13.065 6 14 C4.31821339 11.47732009 3.09893258 9.18908177 1.875 6.4375 C1.52179687 5.65246094 1.16859375 4.86742187 0.8046875 4.05859375 C0 2 0 2 0 0 Z " fill="#0D6BB6" transform="translate(830,513)"/>
<path d="M0 0 C0.66 0.33 1.32 0.66 2 1 C3.99960012 1.039992 6.00047242 1.04346799 8 1 C4.74147635 3.1723491 1.40755272 5.07119658 -2 7 C-2 3.89448334 -1.4606285 2.64738916 0 0 Z " fill="#1250A3" transform="translate(510,504)"/>
<path d="M0 0 C3.7952131 1.49097658 5.61042731 3.75700849 8 7 C7.01 7.495 7.01 7.495 6 8 C1.125 3.375 1.125 3.375 0 0 Z " fill="#2C5FF4" transform="translate(239,537)"/>
<path d="M0 0 C0 0.33 0 0.66 0 1 C-4.29 1.66 -8.58 2.32 -13 3 C-8.46581795 -1.53418205 -6.0622627 -1.02944084 0 0 Z " fill="#0D50A5" transform="translate(694,515)"/>
<path d="M0 0 C0.33 0.66 0.66 1.32 1 2 C2.32338632 2.68620031 3.65949948 3.34786461 5 4 C7.01182457 5.31542376 9.01399663 6.6459068 11 8 C10.34 8.66 9.68 9.32 9 10 C7.88625 9.1028125 7.88625 9.1028125 6.75 8.1875 C4.12124086 6.03831694 4.12124086 6.03831694 1.6875 4.4375 C1.130625 3.963125 0.57375 3.48875 0 3 C0 2.01 0 1.02 0 0 Z " fill="#3265F0" transform="translate(247,544)"/>
<path d="M0 0 C0.556875 0.268125 1.11375 0.53625 1.6875 0.8125 C0.82125 1.121875 0.82125 1.121875 -0.0625 1.4375 C-3.12660544 3.31000888 -4.46789968 5.78208519 -6.3125 8.8125 C-7.125 7.125 -7.125 7.125 -7.3125 4.8125 C-3.35769774 -0.27224576 -3.35769774 -0.27224576 0 0 Z " fill="#0C50A6" transform="translate(672.3125,532.1875)"/>
<path d="M0 0 C3.0625 0.625 3.0625 0.625 6 2 C7.375 4.125 7.375 4.125 8 6 C7.34 6.66 6.68 7.32 6 8 C5.814375 7.38125 5.62875 6.7625 5.4375 6.125 C3.28562767 2.94397134 0.62466237 2.80548053 -3 2 C-2.01 1.34 -1.02 0.68 0 0 Z " fill="#1852A8" transform="translate(454,515)"/>
<path d="M0 0 C0.99 0.33 1.98 0.66 3 1 C1.7391988 2.03319813 0.46596742 3.05124379 -0.8125 4.0625 C-1.87404297 4.91521484 -1.87404297 4.91521484 -2.95703125 5.78515625 C-3.63121094 6.18605469 -4.30539063 6.58695313 -5 7 C-5.99 6.67 -6.98 6.34 -8 6 C-6.7391988 4.96680187 -5.46596742 3.94875621 -4.1875 2.9375 C-3.47980469 2.36902344 -2.77210937 1.80054688 -2.04296875 1.21484375 C-1.36878906 0.81394531 -0.69460937 0.41304687 0 0 Z " fill="#0D99F6" transform="translate(109,525)"/>
<path d="M0 0 C2.88437779 1.29299694 4.87219421 2.65941363 7 5 C6.67 5.66 6.34 6.32 6 7 C3.69 5.35 1.38 3.7 -1 2 C-0.67 1.34 -0.34 0.68 0 0 Z " fill="#19449D" transform="translate(365,524)"/>
<path d="M0 0 C1.32 0.33 2.64 0.66 4 1 C-0.455 3.97 -0.455 3.97 -5 7 C-3 2 -3 2 0 0 Z " fill="#123788" transform="translate(406,505)"/>
<path d="M0 0 C3.875 0.875 3.875 0.875 5 2 C5.14115161 4.67058851 5.04247107 7.32432238 5 10 C4.67 10 4.34 10 4 10 C3.566875 8.3603125 3.566875 8.3603125 3.125 6.6875 C2.18106796 2.95986155 2.18106796 2.95986155 0 0 Z " fill="#0F70BB" transform="translate(854,548)"/>
<path d="M0 0 C2.75 -0.25 2.75 -0.25 6 0 C8.375 2 8.375 2 10 4 C9.01 5.485 9.01 5.485 8 7 C7.608125 6.195625 7.21625 5.39125 6.8125 4.5625 C5.23051809 1.76935262 5.23051809 1.76935262 2.3125 1.1875 C1.1678125 1.0946875 1.1678125 1.0946875 0 1 C0 0.67 0 0.34 0 0 Z " fill="#1B489D" transform="translate(347,498)"/>
<path d="M0 0 C1.98 1.65 3.96 3.3 6 5 C5.01 6.485 5.01 6.485 4 8 C0 2.25 0 2.25 0 0 Z " fill="#13BFF8" transform="translate(278,433)"/>
<path d="M0 0 C2.64 0.66 5.28 1.32 8 2 C7.67 2.66 7.34 3.32 7 4 C5.02 4 3.04 4 1 4 C0.67 2.68 0.34 1.36 0 0 Z " fill="#174C95" transform="translate(572,560)"/>
<path d="M0 0 C4.75 0.75 4.75 0.75 7 3 C6.67 3.99 6.34 4.98 6 6 C3.97945196 4.35830472 1.97956942 2.69088222 0 1 C0 0.67 0 0.34 0 0 Z " fill="#1B8FF3" transform="translate(49,556)"/>
<path d="M0 0 C0.598125 0.20625 1.19625 0.4125 1.8125 0.625 C0.4925 1.945 -0.8275 3.265 -2.1875 4.625 C-3.1775 3.635 -4.1675 2.645 -5.1875 1.625 C-2.1875 -0.375 -2.1875 -0.375 0 0 Z " fill="#2A95EC" transform="translate(50.1875,551.375)"/>
<path d="M0 0 C1.98362069 2.91708924 1.9876191 4.12380904 1.625 7.75 C1.41875 8.8225 1.2125 9.895 1 11 C0.67 11 0.34 11 0 11 C-0.19491452 9.54263913 -0.38069358 8.08405407 -0.5625 6.625 C-0.66691406 5.81289063 -0.77132812 5.00078125 -0.87890625 4.1640625 C-1 2 -1 2 0 0 Z " fill="#0E5EB5" transform="translate(664,539)"/>
<path d="M0 0 C2 3 2 3 1.625 5.1875 C1.41875 5.785625 1.2125 6.38375 1 7 C0.34 7 -0.32 7 -1 7 C-1.33 7.99 -1.66 8.98 -2 10 C-3.39195915 5.82412255 -1.82323219 3.86525224 0 0 Z " fill="#1562BA" transform="translate(585,531)"/>
<path d="M0 0 C3.16115776 1.36983503 3.9927092 1.9890638 6 5 C5.67 5.99 5.34 6.98 5 8 C2 4.25 2 4.25 2 2 C1.34 2 0.68 2 0 2 C0 1.34 0 0.68 0 0 Z " fill="#0E70BF" transform="translate(816,517)"/>
<path d="M0 0 C3 1 3 1 3 1 Z " fill="#277EC5" transform="translate(712,565)"/>
<path d="M0 0 C3 1 3 1 3 1 Z " fill="#2663B3" transform="translate(433,565)"/>
<path d="M0 0 C0.99 0.495 0.99 0.495 2 1 C1.01 1.495 1.01 1.495 0 2 C0 1.34 0 0.68 0 0 Z " fill="#2263B9" transform="translate(433,525)"/>
<path d="M0 0 C2 1 2 1 2 1 Z " fill="#217BC9" transform="translate(680,567)"/>
<path d="M0 0 C2 1 2 1 2 1 Z " fill="#2592D2" transform="translate(816,566)"/>
<path d="M0 0 C2 1 2 1 2 1 Z " fill="#2663B5" transform="translate(464,565)"/>
<path d="M0 0 C2 1 2 1 2 1 Z " fill="#258CCF" transform="translate(793,563)"/>
<path d="" fill="#2095D9" transform="translate(0,0)"/>
<path d="M0 0 C2 1 2 1 2 1 Z " fill="#2060B5" transform="translate(454,539)"/>
<path d="" fill="#2563B7" transform="translate(0,0)"/>
<path d="" fill="#2371C4" transform="translate(0,0)"/>
<path d="" fill="#225FB3" transform="translate(0,0)"/>
<path d="" fill="#3E7AED" transform="translate(0,0)"/>
<path d="" fill="#3E7AED" transform="translate(0,0)"/>
<path d="" fill="#358EEE" transform="translate(0,0)"/>
<path d="" fill="#368EEF" transform="translate(0,0)"/>
<path d="" fill="#4375F2" transform="translate(0,0)"/>
<path d="" fill="#4177EF" transform="translate(0,0)"/>
<path d="" fill="#497BD2" transform="translate(0,0)"/>
<path d="" fill="#4271F0" transform="translate(0,0)"/>
<path d="" fill="#2792D6" transform="translate(0,0)"/>
<path d="" fill="#2790D4" transform="translate(0,0)"/>
<path d="" fill="#247BC8" transform="translate(0,0)"/>
<path d="" fill="#299ED7" transform="translate(0,0)"/>
<path d="" fill="#2560B2" transform="translate(0,0)"/>
<path d="" fill="#285CAF" transform="translate(0,0)"/>
<path d="" fill="#2C60B1" transform="translate(0,0)"/>
<path d="" fill="#289ED8" transform="translate(0,0)"/>
<path d="" fill="#279EDC" transform="translate(0,0)"/>
<path d="" fill="#2685CB" transform="translate(0,0)"/>
<path d="" fill="#2884C9" transform="translate(0,0)"/>
<path d="" fill="#2B73BE" transform="translate(0,0)"/>
<path d="" fill="#2865B4" transform="translate(0,0)"/>
<path d="" fill="#2864B3" transform="translate(0,0)"/>
<path d="" fill="#285EB3" transform="translate(0,0)"/>
<path d="" fill="#3562B2" transform="translate(0,0)"/>
<path d="" fill="#2899D6" transform="translate(0,0)"/>
<path d="" fill="#247CC8" transform="translate(0,0)"/>
<path d="" fill="#2857AB" transform="translate(0,0)"/>
<path d="" fill="#2A7DC4" transform="translate(0,0)"/>
<path d="" fill="#267FCC" transform="translate(0,0)"/>
<path d="" fill="#2A72BE" transform="translate(0,0)"/>
<path d="" fill="#289CD8" transform="translate(0,0)"/>
<path d="" fill="#2A76C0" transform="translate(0,0)"/>
<path d="" fill="#267AC6" transform="translate(0,0)"/>
<path d="" fill="#2871BB" transform="translate(0,0)"/>
<path d="" fill="#2566B3" transform="translate(0,0)"/>
<path d="" fill="#427CE6" transform="translate(0,0)"/>
<path d="" fill="#2678C5" transform="translate(0,0)"/>
<path d="" fill="#257FCA" transform="translate(0,0)"/>
<path d="" fill="#239DDB" transform="translate(0,0)"/>
<path d="" fill="#3B7FEE" transform="translate(0,0)"/>
<path d="" fill="#2575C5" transform="translate(0,0)"/>
<path d="" fill="#2459AC" transform="translate(0,0)"/>
<path d="" fill="#1CA0E1" transform="translate(0,0)"/>
<path d="" fill="#209EDB" transform="translate(0,0)"/>
<path d="" fill="#2453AD" transform="translate(0,0)"/>
<path d="" fill="#1E8AD4" transform="translate(0,0)"/>
<path d="" fill="#208CD6" transform="translate(0,0)"/>
<path d="" fill="#2498D9" transform="translate(0,0)"/>
<path d="" fill="#1E7BCE" transform="translate(0,0)"/>
<path d="" fill="#2170C3" transform="translate(0,0)"/>
<path d="" fill="#1E5EBA" transform="translate(0,0)"/>
<path d="" fill="#1E78CC" transform="translate(0,0)"/>
<path d="" fill="#2461B9" transform="translate(0,0)"/>
<path d="" fill="#219CDD" transform="translate(0,0)"/>
<path d="" fill="#1D92DD" transform="translate(0,0)"/>
<path d="" fill="#217ECC" transform="translate(0,0)"/>
<path d="" fill="#3C78F3" transform="translate(0,0)"/>
<path d="" fill="#2094D9" transform="translate(0,0)"/>
<path d="" fill="#2093D8" transform="translate(0,0)"/>
<path d="" fill="#1F93D7" transform="translate(0,0)"/>
<path d="" fill="#2094D9" transform="translate(0,0)"/>
<path d="" fill="#1E8FD9" transform="translate(0,0)"/>
<path d="" fill="#1D79C9" transform="translate(0,0)"/>
<path d="" fill="#207CCE" transform="translate(0,0)"/>
<path d="" fill="#207BCE" transform="translate(0,0)"/>
<path d="" fill="#1F6DBF" transform="translate(0,0)"/>
<path d="" fill="#3A76F3" transform="translate(0,0)"/>
<path d="" fill="#1E79C8" transform="translate(0,0)"/>
<path d="" fill="#1F78C7" transform="translate(0,0)"/>
<path d="" fill="#2264B8" transform="translate(0,0)"/>
<path d="" fill="#2495DB" transform="translate(0,0)"/>
<path d="" fill="#1EA6E5" transform="translate(0,0)"/>
<path d="" fill="#2252AB" transform="translate(0,0)"/>
<path d="" fill="#1C72C3" transform="translate(0,0)"/>
<path d="" fill="#2457B1" transform="translate(0,0)"/>
<path d="" fill="#1AA3E6" transform="translate(0,0)"/>
<path d="" fill="#2386CF" transform="translate(0,0)"/>
<path d="" fill="#1D71C4" transform="translate(0,0)"/>
<path d="" fill="#216CBC" transform="translate(0,0)"/>
<path d="" fill="#17A5E4" transform="translate(0,0)"/>
<path d="" fill="#1AA2E5" transform="translate(0,0)"/>
<path d="" fill="#208AD6" transform="translate(0,0)"/>
<path d="" fill="#1C77C6" transform="translate(0,0)"/>
<path d="" fill="#207BCF" transform="translate(0,0)"/>
<path d="" fill="#2461B6" transform="translate(0,0)"/>
<path d="" fill="#235DB4" transform="translate(0,0)"/>
<path d="" fill="#19A1E3" transform="translate(0,0)"/>
<path d="" fill="#2094DA" transform="translate(0,0)"/>
<path d="" fill="#225EB3" transform="translate(0,0)"/>
<path d="" fill="#245EAE" transform="translate(0,0)"/>
<path d="" fill="#2084D2" transform="translate(0,0)"/>
<path d="" fill="#2194DA" transform="translate(0,0)"/>
<path d="" fill="#246FBE" transform="translate(0,0)"/>
<path d="" fill="#1E6AC1" transform="translate(0,0)"/>
<path d="" fill="#2363B2" transform="translate(0,0)"/>
<path d="" fill="#1E92DB" transform="translate(0,0)"/>
<path d="" fill="#2090D9" transform="translate(0,0)"/>
<path d="" fill="#1E71C1" transform="translate(0,0)"/>
<path d="" fill="#1F6FC2" transform="translate(0,0)"/>
<path d="" fill="#2171C0" transform="translate(0,0)"/>
<path d="" fill="#20A8E1" transform="translate(0,0)"/>
<path d="" fill="#258DD2" transform="translate(0,0)"/>
<path d="" fill="#278BCC" transform="translate(0,0)"/>
<path d="" fill="#20A2DF" transform="translate(0,0)"/>
<path d="" fill="#2894D4" transform="translate(0,0)"/>
<path d="" fill="#2480CD" transform="translate(0,0)"/>
<path d="" fill="#2179C3" transform="translate(0,0)"/>
<path d="" fill="#1E73C7" transform="translate(0,0)"/>
<path d="" fill="#2662AF" transform="translate(0,0)"/>
<path d="" fill="#235EB1" transform="translate(0,0)"/>
<path d="" fill="#2359B0" transform="translate(0,0)"/>
<path d="" fill="#245CB2" transform="translate(0,0)"/>
<path d="" fill="#235DB4" transform="translate(0,0)"/>
<path d="" fill="#2461B2" transform="translate(0,0)"/>
<path d="" fill="#2259AF" transform="translate(0,0)"/>
<path d="" fill="#215CAF" transform="translate(0,0)"/>
<path d="" fill="#2361B0" transform="translate(0,0)"/>
<path d="" fill="#24A6DE" transform="translate(0,0)"/>
<path d="" fill="#2765B6" transform="translate(0,0)"/>
<path d="" fill="#2BA1D6" transform="translate(0,0)"/>
<path d="" fill="#2AA6DA" transform="translate(0,0)"/>
<path d="" fill="#2BA4DC" transform="translate(0,0)"/>
<path d="" fill="#347CBE" transform="translate(0,0)"/>
<path d="" fill="#2FADED" transform="translate(0,0)"/>
<path d="" fill="#30D1F8" transform="translate(0,0)"/>
</svg>
